<?xml version="1.0" encoding="iso-8859-1"?>
<!-- Generator: Adobe Illustrator 19.0.0, SVG Export Plug-In . SVG Version: 6.00 Build 0)  -->
<svg version="1.1" id="Capa_1" xmlns="http://www.w3.org/2000/svg" xmlns:xlink="http://www.w3.org/1999/xlink" x="0px" y="0px"
	 viewBox="0 0 480 480" style="enable-background:new 0 0 480 480;" xml:space="preserve">
<path style="fill:#2A60A0;" d="M440,476H40c-17.672,0-32-14.328-32-32v-8h464v8C472,461.672,457.672,476,440,476z"/>
<path style="fill:#EA7E73;" d="M456,180v256H24V180c0-17.68,14.32-32,32-32h368C441.68,148,456,162.32,456,180z"/>
<path style="fill:#FFFFFF;" d="M56,180v224h368V180H56z"/>
<path style="fill:#EFC062;" d="M160,220c-39.744,0-72,32.256-72,72c0,23.832,11.592,45,29.52,58.104
	C129.4,358.816,144.088,364,160,364s30.6-5.184,42.48-13.896C220.408,337,232,315.832,232,292C232,252.256,199.744,220,160,220z"/>
<g>
	<path style="fill:#2A60A0;" d="M207.92,345.68C206.72,320.24,185.68,300,160,300s-46.72,20.24-47.92,45.68H207.92z"/>
	<circle style="fill:#2A60A0;" cx="160" cy="276" r="24"/>
</g>
<rect x="264" y="212" style="fill:#61CCCC;" width="128" height="64"/>
<g>
	<rect x="320" y="236" style="fill:#2A60A0;" width="16" height="16"/>
	<rect x="288" y="236" style="fill:#2A60A0;" width="16" height="16"/>
	<rect x="352" y="236" style="fill:#2A60A0;" width="16" height="16"/>
</g>
<rect x="264" y="308" style="fill:#61CCCC;" width="128" height="64"/>
<g>
	<rect x="320" y="332" style="fill:#2A60A0;" width="16" height="16"/>
	<rect x="288" y="332" style="fill:#2A60A0;" width="16" height="16"/>
	<rect x="352" y="332" style="fill:#2A60A0;" width="16" height="16"/>
</g>
<polygon style="fill:#EA7E73;" points="312,20 312,68 264,68 264,116 216,116 216,68 168,68 168,20 "/>
<g>
	<rect x="312" y="36" style="fill:#2A60A0;" width="168" height="16"/>
	<rect y="36" style="fill:#2A60A0;" width="168" height="16"/>
	<rect x="232" y="116" style="fill:#2A60A0;" width="16" height="32"/>
</g>
<g>
	<rect y="68" style="fill:#EFC062;" width="16" height="16"/>
	<rect x="32" y="68" style="fill:#EFC062;" width="16" height="16"/>
	<rect x="64" y="68" style="fill:#EFC062;" width="16" height="16"/>
	<rect x="400" y="4" style="fill:#EFC062;" width="16" height="16"/>
	<rect x="432" y="4" style="fill:#EFC062;" width="16" height="16"/>
	<rect x="464" y="4" style="fill:#EFC062;" width="16" height="16"/>
</g>
<g>
</g>
<g>
</g>
<g>
</g>
<g>
</g>
<g>
</g>
<g>
</g>
<g>
</g>
<g>
</g>
<g>
</g>
<g>
</g>
<g>
</g>
<g>
</g>
<g>
</g>
<g>
</g>
<g>
</g>
</svg>
