<svg id="color" enable-background="new 0 0 24 24" height="512" viewBox="0 0 24 24" width="512" xmlns="http://www.w3.org/2000/svg"><path d="m20 2.75c0-1.519-1.231-2.75-2.75-2.75h-14.5c-1.519 0-2.75 1.231-2.75 2.75v18.5c0 1.519 1.231 2.75 2.75 2.75h14.5c1.519 0 2.75-1.231 2.75-2.75z" fill="#eceff1"/><path d="m10 0h-7.25c-1.519 0-2.75 1.231-2.75 2.75v18.5c0 1.519 1.231 2.75 2.75 2.75h7.25z" fill="#cdd0d2"/><g fill="#607d8b"><path d="m6.25 10h-1.5c-.965 0-1.75-.785-1.75-1.75v-2.5c0-.965.785-1.75 1.75-1.75h1.5c.414 0 .75.336.75.75s-.336.75-.75.75h-1.5c-.138 0-.25.112-.25.25v2.5c0 .138.112.25.25.25h1.5c.414 0 .75.336.75.75s-.336.75-.75.75z"/><path d="m11.25 6.25h-.5v-.5c0-.414-.336-.75-.75-.75s-.75.336-.75.75v.5h-.5c-.414 0-.75.336-.75.75s.336.75.75.75h.5v.5c0 .414.336.75.75.75s.75-.336.75-.75v-.5h.5c.414 0 .75-.336.75-.75s-.336-.75-.75-.75z"/><path d="m16.25 6.25h-.5v-.5c0-.414-.336-.75-.75-.75s-.75.336-.75.75v.5h-.5c-.414 0-.75.336-.75.75s.336.75.75.75h.5v.5c0 .414.336.75.75.75s.75-.336.75-.75v-.5h.5c.414 0 .75-.336.75-.75s-.336-.75-.75-.75z"/></g><path d="m4.5 7h-1.5v1.25c0 .965.785 1.75 1.75 1.75h1.5c.414 0 .75-.336.75-.75s-.336-.75-.75-.75h-1.5c-.138 0-.25-.112-.25-.25z" fill="#546d79"/><path d="m12 7h-4c0 .414.336.75.75.75h.5v.5c0 .414.336.75.75.75s.75-.336.75-.75v-.5h.5c.414 0 .75-.336.75-.75z" fill="#546d79"/><path d="m17 7h-4c0 .414.336.75.75.75h.5v.5c0 .414.336.75.75.75s.75-.336.75-.75v-.5h.5c.414 0 .75-.336.75-.75z" fill="#546d79"/><path d="m15 20h-4v-4.25c0-.414.336-.75.75-.75h3.25z" fill="#90a4ae"/><path d="m20 15h3.25c.414 0 .75.336.75.75v4.25h-4z" fill="#607d8b"/><path d="m15 15h5v5h-5z" fill="#546e7a"/><path d="m17.5 24h-5.75c-.414 0-.75-.336-.75-.75v-3.25h6.5z" fill="#607d8b"/><path d="m17.5 20h6.5v3.25c0 .414-.336.75-.75.75h-5.75z" fill="#90a4ae"/></svg>