<?xml version="1.0" encoding="UTF-8"?>
<!DOCTYPE svg PUBLIC "-//W3C//DTD SVG 1.1//EN" "http://www.w3.org/Graphics/SVG/1.1/DTD/svg11.dtd">
<!-- Creator: CorelDRAW 2019 (64-Bit) -->
<svg xmlns="http://www.w3.org/2000/svg" xml:space="preserve" width="5mm" height="5mm" version="1.1" style="shape-rendering:geometricPrecision; text-rendering:geometricPrecision; image-rendering:optimizeQuality; fill-rule:evenodd; clip-rule:evenodd"
viewBox="0 0 137.75 137.75"
 xmlns:xlink="http://www.w3.org/1999/xlink"
 xmlns:xodm="http://www.corel.com/coreldraw/odm/2003">
 <defs>
  <style type="text/css">
   <![CDATA[
    .fil0 {fill:none}
    .fil1 {fill:#004380}
    .fil3 {fill:#01589C}
    .fil2 {fill:#6499D2}
   ]]>
  </style>
 </defs>
 <g id="Layer_x0020_1">
  <metadata id="CorelCorpID_0Corel-Layer"/>
  <rect class="fil0" width="137.75" height="137.75"/>
  <path class="fil1" d="M68.88 68.89l-12.11 7.22 0.01 0.01c2.43,4.3 6.95,7.2 12.13,7.2 5.17,0 9.69,-2.89 12.12,-7.19l-12.15 -7.24zm-24.37 14.53l-16.71 9.97c0.74,1.32 1.48,2.2 2.77,2.96 11.48,6.85 22.95,13.69 34.43,20.54 1.29,0.77 2.37,1 3.86,1 1.49,0 2.6,-0.22 3.9,-1 11.48,-6.85 22.95,-13.69 34.43,-20.54 1.29,-0.77 2.02,-1.62 2.76,-2.95l0.01 -0.02 -23.87 -14.24 7.21 4.3c-4.88,8.65 -13.97,14.47 -24.38,14.47 -10.41,0 -19.51,-5.82 -24.38,-14.48l-0.01 -0.01z"/>
  <path class="fil2" d="M68.89 19.86c1.49,0 2.57,0.22 3.86,1 11.48,6.85 22.95,13.69 34.43,20.54 1.29,0.77 2.04,1.65 2.78,2.99l0 0 -16.67 9.94c-4.88,-8.66 -13.97,-14.49 -24.39,-14.49 -10.43,0 -19.53,5.83 -24.4,14.51l-0 0c-2.4,4.27 -3.78,9.23 -3.78,14.53 0,5.3 1.38,10.27 3.79,14.55l-16.71 9.97 -0.01 -0.03c-0.75,-1.34 -1.09,-2.41 -1.09,-3.95 0,-13.69 0,-27.39 0,-41.08 0,-1.54 0.37,-2.65 1.11,-3.98 0.75,-1.34 1.47,-2.18 2.76,-2.95 11.48,-6.85 22.95,-13.69 34.43,-20.54 1.29,-0.77 2.4,-1 3.9,-1zm22.26 35.75l-22.26 13.28 -0.01 0.01 0 0 -12.11 7.22c-1.2,-2.13 -1.88,-4.6 -1.88,-7.23 0,-2.63 0.68,-5.09 1.87,-7.22l0 -0.01c2.42,-4.32 6.95,-7.22 12.14,-7.22 5.18,0 9.71,2.9 12.13,7.21l10.11 -6.03z"/>
  <path class="fil3" d="M109.95 93.38c0.74,-1.33 1.11,-2.44 1.11,-3.97 -0,-13.69 0,-27.39 0,-41.08 0,-1.54 -0.35,-2.61 -1.09,-3.95l-41.08 24.5 41.07 24.49z"/>
 </g>
</svg>
