<?xml version="1.0" encoding="UTF-8"?>
<!DOCTYPE svg PUBLIC "-//W3C//DTD SVG 1.1//EN" "http://www.w3.org/Graphics/SVG/1.1/DTD/svg11.dtd">
<!-- Creator: CorelDRAW 2019 (64-Bit) -->
<svg xmlns="http://www.w3.org/2000/svg" xml:space="preserve" width="1.9685in" height="1.9685in" version="1.1" style="shape-rendering:geometricPrecision; text-rendering:geometricPrecision; image-rendering:optimizeQuality; fill-rule:evenodd; clip-rule:evenodd"
viewBox="0 0 542.31 542.31"
 xmlns:xlink="http://www.w3.org/1999/xlink"
 xmlns:xodm="http://www.corel.com/coreldraw/odm/2003">
 <defs>
  <style type="text/css">
   <![CDATA[
    .fil0 {fill:none}
    .fil1 {fill:#004380}
    .fil3 {fill:#01589C}
    .fil2 {fill:#6499D2}
   ]]>
  </style>
 </defs>
 <g id="Layer_x0020_1">
  <metadata id="CorelCorpID_0Corel-Layer"/>
  <rect class="fil0" width="542.31" height="542.31"/>
  <path class="fil1" d="M271.19 271.21l-47.67 28.43 0.03 0.04c9.55,16.95 27.36,28.34 47.74,28.34 20.37,0 38.16,-11.38 47.72,-28.3l-47.82 -28.52zm-95.94 57.22l-65.8 39.25c2.92,5.2 5.84,8.65 10.9,11.67 45.18,26.95 90.36,53.91 135.54,80.87 5.09,3.04 9.31,3.92 15.19,3.92 5.88,0 10.25,-0.88 15.34,-3.92 45.18,-26.96 90.36,-53.91 135.54,-80.87 5.09,-3.04 7.94,-6.38 10.88,-11.63l0.03 -0.06 -93.99 -56.06 28.38 16.93c-19.21,34.07 -55,56.97 -95.98,56.97 -41,0 -76.8,-22.92 -96,-57.01l-0.03 -0.05z"/>
  <path class="fil2" d="M271.23 78.18c5.87,0 10.1,0.89 15.19,3.92 45.18,26.96 90.36,53.91 135.54,80.87 5.09,3.04 8.02,6.51 10.95,11.77l0.01 0.02 -65.61 39.13c-19.2,-34.11 -55.01,-57.05 -96.03,-57.05 -41.04,0 -76.88,22.97 -96.07,57.12l-0.01 0.01c-9.45,16.82 -14.86,36.36 -14.86,57.19 0,20.87 5.43,40.43 14.9,57.27l-65.8 39.25 -0.06 -0.1c-2.94,-5.26 -4.31,-9.48 -4.31,-15.55 0,-53.91 0,-107.82 0,-161.73 0,-6.07 1.45,-10.43 4.39,-15.69 2.94,-5.26 5.79,-8.6 10.88,-11.63 45.18,-26.96 90.36,-53.91 135.54,-80.87 5.09,-3.03 9.47,-3.92 15.34,-3.92zm87.64 140.74l-87.64 52.27 -0.04 0.02 0 0 -47.67 28.43c-4.71,-8.38 -7.41,-18.1 -7.41,-28.48 0,-10.35 2.68,-20.05 7.37,-28.41l0.01 -0.02c9.54,-17 27.37,-28.44 47.8,-28.44 20.4,0 38.21,11.41 47.76,28.37l39.82 -23.75z"/>
  <path class="fil3" d="M432.87 367.65c2.9,-5.22 4.35,-9.6 4.35,-15.62 -0,-53.91 0,-107.82 0,-161.73 0,-6.07 -1.37,-10.29 -4.3,-15.54l-161.73 96.46 161.68 96.44z"/>
 </g>
</svg>
