<?xml version="1.0" encoding="UTF-8"?>
<!DOCTYPE svg PUBLIC "-//W3C//DTD SVG 1.1//EN" "http://www.w3.org/Graphics/SVG/1.1/DTD/svg11.dtd">
<!-- Creator: CorelDRAW 2019 (64-Bit) -->
<svg xmlns="http://www.w3.org/2000/svg" xml:space="preserve" width="1.9685in" height="1.9685in" version="1.1" style="shape-rendering:geometricPrecision; text-rendering:geometricPrecision; image-rendering:optimizeQuality; fill-rule:evenodd; clip-rule:evenodd"
viewBox="0 0 1337.28 1337.28"
 xmlns:xlink="http://www.w3.org/1999/xlink"
 xmlns:xodm="http://www.corel.com/coreldraw/odm/2003">
 <defs>
  <style type="text/css">
   <![CDATA[
    .fil1 {fill:none}
    .fil0 {fill:#0091E2;fill-rule:nonzero}
   ]]>
  </style>
 </defs>
 <g id="Layer_x0020_1">
  <metadata id="CorelCorpID_0Corel-Layer"/>
  <g id="_2468246323440">
   <g>
    <path class="fil0" d="M636.85 611.42c-5.69,-0.18 -10.32,4.27 -10.49,9.78l0 51.22c-24.37,-19.56 -60.11,-15.65 -79.67,8.71 -8,10.14 -12.45,22.59 -12.45,35.57 -0.53,31.3 24.36,57.09 55.66,57.62 31.3,0.53 57.09,-24.37 57.62,-55.67l0 -96.74c0,-2.85 -1.07,-5.51 -3.02,-7.47 -2.13,-1.96 -4.8,-3.02 -7.65,-3.02l0 0zm-13.34 118.98c-3.56,8.54 -10.32,15.29 -18.85,19.03 -8.89,3.73 -18.85,3.73 -27.74,0 -8.54,-3.56 -15.12,-10.49 -18.67,-18.85 -3.73,-8.72 -3.73,-18.67 0,-27.57 3.56,-8.54 10.32,-15.29 18.67,-18.85 8.89,-3.73 18.85,-3.73 27.74,0 8.53,3.73 15.29,10.49 18.85,19.03 3.73,8.53 3.73,18.49 0,27.21l0 0zm131.6 -53.71c-22.05,-22.05 -57.97,-22.05 -80.03,0 -10.67,10.67 -16.54,25.08 -16.54,40.01 -0.53,31.3 24.36,57.09 55.66,57.62 31.3,0.53 57.09,-24.37 57.62,-55.67l0 -1.96c0,-7.47 -1.42,-14.76 -4.27,-21.7 -2.85,-6.94 -7.11,-13.16 -12.45,-18.32l0 0zm-7.29 53.53c-1.78,4.27 -4.45,8 -7.65,11.2 -3.2,3.2 -7.11,5.87 -11.2,7.65 -8.89,3.73 -18.85,3.73 -27.74,0 -8.54,-3.56 -15.29,-10.49 -18.85,-18.85 -3.73,-8.71 -3.73,-18.67 0,-27.56 3.56,-8.54 10.32,-15.12 18.85,-18.85 8.89,-3.74 18.85,-3.74 27.74,0 4.27,1.78 8,4.45 11.2,7.65 3.2,3.2 5.87,7.11 7.65,11.2 3.73,9.07 3.73,19.03 0,27.56l0 0zm241.5 -59.75c0,-1.42 -0.36,-2.85 -0.89,-4.09 -0.53,-1.25 -1.42,-2.31 -2.31,-3.38 -0.89,-0.89 -2.13,-1.78 -3.38,-2.31 -1.24,-0.53 -2.67,-0.89 -4.09,-0.89 -1.96,0 -3.91,0.53 -5.69,1.6l-60.47 39.3 0 -78.61c0,-2.85 -1.07,-5.51 -3.02,-7.47 -1.96,-1.96 -4.62,-3.2 -7.47,-3.2 -5.87,0 -10.49,4.62 -10.67,10.49l0 140.67c0,2.85 1.07,5.51 3.02,7.47 1.96,2.13 4.62,3.2 7.47,3.2 2.85,0 5.51,-1.07 7.47,-3.2 1.96,-1.96 3.2,-4.62 3.02,-7.47l0 -36.46 12.27 -8 46.77 52.46c1.96,1.78 4.45,2.85 7.11,2.67 1.42,0 2.85,-0.18 4.09,-0.89 1.24,-0.53 2.31,-1.24 3.38,-2.31 0.89,-1.07 1.78,-2.13 2.31,-3.38 0.53,-1.24 0.89,-2.67 0.89,-4.09 0,-2.67 -1.07,-5.34 -2.85,-7.29l-43.39 -48.91 42.32 -27.56c2.85,-1.78 4.27,-4.98 4.09,-8.36l0 0zm-175.53 20.98c3.2,-3.2 7.11,-5.87 11.38,-7.65 4.45,-1.78 9.07,-2.85 13.87,-2.85 4.27,0 8.36,0.71 12.27,2.13 3.91,1.6 7.65,3.73 10.85,6.58 1.96,1.6 4.45,2.31 6.94,2.31 2.85,0.18 5.69,-0.89 7.65,-3.02 1.96,-1.96 3.02,-4.8 3.02,-7.65 0,-3.02 -1.25,-6.05 -3.73,-8 -10.14,-9.07 -23.3,-14.05 -36.99,-13.69 -31.3,0 -56.73,25.43 -56.73,56.73 0,31.3 25.25,56.55 56.37,56.73 13.69,0 26.85,-4.8 37.17,-13.69 2.13,-1.96 3.38,-4.8 3.38,-7.82 0.18,-5.69 -4.27,-10.32 -9.78,-10.49l-0.71 0c-2.49,0 -4.8,0.71 -6.76,2.13 -3.2,2.85 -6.76,4.98 -10.67,6.58 -3.91,1.42 -8.18,2.13 -12.27,2.13 -4.8,0 -9.43,-0.89 -13.87,-2.85 -4.27,-1.78 -8,-4.45 -11.38,-7.65 -13.87,-13.87 -13.87,-36.28 -0.18,-50.15 0.18,0.36 0.18,0.36 0.18,0.18l0 0zm385.55 -24.36c-2.13,-1.96 -4.45,-3.38 -7.11,-4.27 -3.02,-1.07 -6.22,-1.78 -9.43,-2.13 -3.2,-0.36 -6.4,-0.53 -9.6,-0.53 -6.4,0 -12.98,1.07 -19.03,3.38 -6.04,2.13 -11.56,5.33 -16.54,9.25 -0.03,-5.12 -3.86,-6.93 -7.96,-6.88 -4.97,0.06 -10.4,1.75 -10.4,7.24l0 89.59c0.11,10.47 18.37,10.24 18.37,0.21l0 -46.06c0,-4.8 0.89,-9.43 2.85,-13.87 1.78,-4.27 4.27,-8 7.65,-11.2 3.2,-3.2 7.11,-5.87 11.2,-7.65 4.45,-1.78 9.07,-2.85 13.87,-2.85 4.8,0 9.43,0.89 13.87,2.49 1.42,0.71 2.85,1.07 4.45,1.07 1.42,0 2.85,-0.18 4.09,-0.89 1.25,-0.53 2.31,-1.24 3.38,-2.31 0.89,-0.89 1.78,-2.13 2.31,-3.38 0.53,-1.25 0.89,-2.67 0.89,-4.09 0.18,-2.67 -0.89,-5.16 -2.85,-7.11zm-98.17 27.92c-9.07,-20.98 -29.7,-34.68 -52.46,-34.86 -31.3,0 -56.55,25.25 -56.73,56.55 0,31.3 25.43,56.73 56.73,56.73 13.52,0 26.68,-4.8 36.99,-13.69l0.36 -0.36c0.89,-0.71 1.78,-1.6 2.31,-2.67 3.38,-4.98 2.13,-11.56 -2.67,-14.94 -4.09,-2.67 -9.43,-2.13 -12.98,1.25 -0.36,0.36 -1.42,1.24 -1.42,1.42l-0.18 0.18c-3.02,2.49 -6.4,4.62 -10.14,5.87 -3.91,1.42 -8,2.13 -12.27,1.96 -3.91,0 -7.65,-0.53 -11.38,-1.78 -3.56,-1.25 -6.94,-2.85 -9.96,-5.16 -3.02,-2.13 -5.69,-4.8 -7.82,-7.83 -2.31,-3.02 -3.91,-6.58 -4.98,-10.14l80.03 0c2.85,0 5.51,-1.07 7.47,-3.02 2.13,-1.96 3.2,-4.62 3.02,-7.47 0.18,-7.65 -1.24,-15.12 -3.91,-22.05l0 0zm-86.61 11.38c1.07,-3.73 2.67,-7.11 4.98,-10.14 2.13,-3.02 4.8,-5.69 7.83,-7.82 3.02,-2.13 6.4,-3.91 9.96,-5.16 3.55,-1.24 7.47,-1.78 11.2,-1.78 3.73,0 7.65,0.53 11.2,1.78 7.11,2.31 13.34,6.94 17.78,12.98 2.31,3.02 3.91,6.58 5.16,10.14l-68.11 0zm148.67 51.57c-4.09,0 -7.29,3.38 -7.29,7.47 0,4.09 3.38,7.29 7.47,7.29 4.09,0 7.29,-3.38 7.29,-7.29 0,-4.27 -3.38,-7.47 -7.47,-7.47zm0 13.16c-3.2,0.18 -5.87,-2.31 -6.04,-5.51 -0.18,-3.2 2.31,-5.87 5.51,-6.05 3.2,-0.18 5.87,2.31 6.05,5.51l0 0.36c0.18,3.02 -2.31,5.69 -5.34,5.69l-0.18 0zm1.7 -5.62c0.89,-0.18 1.42,-0.89 1.42,-1.78 0,-0.71 -0.18,-1.24 -0.71,-1.6 -0.71,-0.36 -1.6,-0.53 -2.49,-0.53 -0.89,0 -1.96,0 -2.85,0.18l0 7.29 1.6 0 0 -2.85 0.71 0c0.89,0 1.42,0.36 1.6,1.07 0.18,0.53 0.36,1.25 0.53,1.78l1.78 0c-0.36,-0.53 -0.53,-1.24 -0.53,-1.78 0.18,-0.71 -0.36,-1.42 -1.07,-1.78l0 0zm-2.13 -0.53l-0.89 0 0 -2.13 0.89 0c1.07,0 1.6,0.53 1.6,1.07 0.18,0.71 -0.71,1.24 -1.6,1.07l0 0zm-648.05 -129.64c-1.07,-0.89 -10.67,-8.18 -31.3,-8.18 -5.33,0 -10.85,0.53 -16.18,1.42 -3.91,-27.21 -26.5,-40.37 -27.39,-41.08l-5.51 -3.2 -3.55 5.16c-4.45,6.94 -7.83,14.76 -9.78,22.76 -3.73,15.47 -1.42,30.06 6.4,42.5 -9.43,5.34 -24.72,6.58 -27.92,6.76l-252.53 0c-6.58,0 -11.92,5.34 -11.92,11.92 -0.36,22.05 3.38,44.1 11.03,64.91 8.71,22.76 21.7,39.66 38.41,49.97 18.85,11.56 49.62,18.14 84.3,18.14 15.65,0 31.3,-1.42 46.77,-4.27 21.52,-3.91 42.15,-11.38 61.18,-22.23 15.65,-9.07 29.7,-20.63 41.61,-34.14 20.1,-22.59 32.01,-47.84 40.73,-70.25l3.56 0c21.87,0 35.39,-8.71 42.86,-16.18 4.98,-4.62 8.71,-10.32 11.38,-16.72l1.6 -4.62 -3.74 -2.67zm-354.76 18.45l33.79 0c1.6,0 3.02,-1.24 3.02,-3.02l0 -30.23c0,-1.6 -1.24,-3.02 -3.02,-3.02l-33.79 0c-1.6,0 -3.02,1.24 -3.02,3.02l0 30.23c0.18,1.78 1.42,3.02 3.02,3.02zm46.6 0l33.79 0c1.6,0 3.02,-1.24 3.02,-3.02l0 -30.23c0,-1.6 -1.25,-3.02 -3.02,-3.02l-33.79 0c-1.6,0 -3.02,1.24 -3.02,3.02l0 30.23c0.18,1.78 1.42,3.02 3.02,3.02l0 0zm47.48 0l33.79 0c1.6,0 3.02,-1.24 3.02,-3.02l0 -30.23c0,-1.6 -1.24,-3.02 -3.02,-3.02l-33.79 0c-1.6,0 -3.02,1.24 -3.02,3.02l0 30.23c0,1.78 1.24,3.02 3.02,3.02zm46.77 0l33.79 0c1.6,0 3.02,-1.24 3.02,-3.02l0 -30.23c0,-1.6 -1.25,-3.02 -3.02,-3.02l-33.79 0c-1.6,0 -3.02,1.24 -3.02,3.02l0 30.23c0,1.78 1.42,3.02 3.02,3.02zm-94.25 -43.22l33.79 0c1.6,0 3.02,-1.42 3.02,-3.02l0 -30.23c0,-1.6 -1.25,-3.02 -3.02,-3.02l-33.79 0c-1.6,0 -3.02,1.24 -3.02,3.02l0 30.23c0.18,1.6 1.42,3.02 3.02,3.02l0 0zm47.48 0l33.79 0c1.6,0 3.02,-1.42 3.02,-3.02l0 -30.23c0,-1.6 -1.24,-3.02 -3.02,-3.02l-33.79 0c-1.6,0 -3.02,1.24 -3.02,3.02l0 30.23c0,1.6 1.24,3.02 3.02,3.02l0 0zm46.77 0l33.79 0c1.6,0 3.02,-1.42 3.02,-3.02l0 -30.23c0,-1.6 -1.42,-3.02 -3.02,-3.02l-33.79 0c-1.6,0 -3.02,1.24 -3.02,3.02l0 30.23c0,1.6 1.42,3.02 3.02,3.02l0 0zm0 -43.39l33.79 0c1.6,0 3.02,-1.24 3.02,-3.02l0 -30.23c0,-1.6 -1.42,-3.02 -3.02,-3.02l-33.79 -0c-1.6,0 -3.02,1.25 -3.02,3.02l0 30.23c0,1.6 1.42,3.02 3.02,3.02l0 0zm47.13 86.61l33.79 0c1.6,0 3.02,-1.24 3.02,-3.02l0 -30.23c0,-1.6 -1.24,-3.02 -3.02,-3.02l-33.79 0c-1.6,0 -3.02,1.24 -3.02,3.02l0 30.23c0.18,1.78 1.42,3.02 3.02,3.02z"/>
   </g>
   <rect class="fil1" x="0" y="-0" width="1337.28" height="1337.28"/>
  </g>
 </g>
</svg>
