<?xml version="1.0" encoding="UTF-8"?>
<!DOCTYPE svg PUBLIC "-//W3C//DTD SVG 1.1//EN" "http://www.w3.org/Graphics/SVG/1.1/DTD/svg11.dtd">
<!-- Creator: CorelDRAW 2019 (64-Bit) -->
<svg xmlns="http://www.w3.org/2000/svg" xml:space="preserve" width="50mm" height="50mm" version="1.1" style="shape-rendering:geometricPrecision; text-rendering:geometricPrecision; image-rendering:optimizeQuality; fill-rule:evenodd; clip-rule:evenodd"
viewBox="0 0 3396.69 3396.69"
 xmlns:xlink="http://www.w3.org/1999/xlink"
 xmlns:xodm="http://www.corel.com/coreldraw/odm/2003">
 <defs>
  <style type="text/css">
   <![CDATA[
    .fil1 {fill:none}
    .fil0 {fill:#0091E2;fill-rule:nonzero}
   ]]>
  </style>
 </defs>
 <g id="Layer_x0020_1">
  <metadata id="CorelCorpID_0Corel-Layer"/>
  <g id="_2467906479152">
   <g>
    <path class="fil0" d="M1617.59 1553c-14.46,-0.45 -26.2,10.84 -26.65,24.84l0 130.09c-61.89,-49.69 -152.68,-39.75 -202.37,22.13 -20.33,25.75 -31.62,57.37 -31.62,90.35 -1.36,79.5 61.88,145 141.38,146.36 79.5,1.35 145,-61.89 146.35,-141.39l0 -245.73c0,-7.23 -2.71,-14 -7.68,-18.97 -5.42,-4.97 -12.19,-7.68 -19.42,-7.68l0 0zm-33.88 302.2c-9.04,21.68 -26.2,38.84 -47.88,48.33 -22.59,9.48 -47.89,9.48 -70.47,0 -21.68,-9.04 -38.4,-26.65 -47.43,-47.88 -9.48,-22.14 -9.48,-47.43 0,-70.02 9.04,-21.68 26.2,-38.84 47.43,-47.88 22.58,-9.48 47.88,-9.48 70.47,0 21.68,9.48 38.84,26.65 47.88,48.33 9.48,21.68 9.48,46.98 0,69.11l0 0zm334.26 -136.42c-56.01,-56.01 -147.25,-56.01 -203.26,0 -27.11,27.11 -42.01,63.69 -42.01,101.64 -1.36,79.5 61.88,145 141.38,146.36 79.5,1.35 145,-61.89 146.36,-141.39l0 -4.97c0,-18.97 -3.61,-37.49 -10.84,-55.11 -7.23,-17.62 -18.07,-33.43 -31.62,-46.53l0 0zm-18.52 135.96c-4.52,10.84 -11.29,20.33 -19.42,28.46 -8.13,8.13 -18.07,14.91 -28.46,19.43 -22.59,9.48 -47.88,9.48 -70.47,0 -21.68,-9.04 -38.84,-26.65 -47.88,-47.89 -9.48,-22.13 -9.48,-47.42 0,-70.01 9.04,-21.68 26.2,-38.4 47.88,-47.88 22.59,-9.49 47.88,-9.49 70.47,0 10.84,4.52 20.33,11.29 28.46,19.42 8.13,8.13 14.9,18.07 19.42,28.46 9.48,23.04 9.48,48.33 0,70.01l0 0zm613.42 -151.77c0,-3.61 -0.9,-7.23 -2.26,-10.39 -1.36,-3.17 -3.61,-5.88 -5.87,-8.59 -2.26,-2.26 -5.42,-4.52 -8.59,-5.87 -3.16,-1.36 -6.77,-2.26 -10.39,-2.26 -4.97,0 -9.94,1.36 -14.46,4.07l-153.58 99.83 0 -199.66c0,-7.23 -2.71,-14.01 -7.68,-18.97 -4.97,-4.97 -11.75,-8.13 -18.97,-8.13 -14.9,0 -26.65,11.75 -27.1,26.65l0 357.3c0,7.23 2.71,14 7.68,18.97 4.97,5.42 11.75,8.13 18.97,8.13 7.23,0 14,-2.71 18.97,-8.13 4.97,-4.97 8.13,-11.75 7.68,-18.97l0 -92.6 31.17 -20.33 118.8 133.25c4.97,4.52 11.29,7.23 18.06,6.78 3.61,0 7.23,-0.46 10.39,-2.26 3.16,-1.35 5.87,-3.16 8.58,-5.87 2.26,-2.71 4.52,-5.42 5.87,-8.59 1.36,-3.16 2.26,-6.77 2.26,-10.39 0,-6.77 -2.71,-13.55 -7.23,-18.52l-110.22 -124.22 107.51 -70.01c7.23,-4.52 10.84,-12.65 10.39,-21.23l0 0zm-445.84 53.3c8.13,-8.13 18.07,-14.9 28.91,-19.42 11.29,-4.52 23.04,-7.23 35.23,-7.23 10.84,0 21.23,1.81 31.17,5.42 9.94,4.06 19.42,9.48 27.55,16.71 4.97,4.07 11.3,5.88 17.62,5.88 7.23,0.45 14.46,-2.26 19.43,-7.68 4.97,-4.97 7.68,-12.19 7.68,-19.42 0,-7.68 -3.17,-15.36 -9.48,-20.33 -25.75,-23.04 -59.18,-35.69 -93.96,-34.78 -79.5,0 -144.09,64.59 -144.09,144.09 0,79.5 64.14,143.65 143.19,144.09 34.78,0 68.21,-12.19 94.41,-34.78 5.42,-4.97 8.58,-12.19 8.58,-19.87 0.46,-14.46 -10.84,-26.2 -24.84,-26.65l-1.81 0c-6.32,0 -12.19,1.8 -17.16,5.41 -8.13,7.23 -17.17,12.65 -27.11,16.72 -9.94,3.61 -20.78,5.42 -31.17,5.42 -12.19,0 -23.94,-2.26 -35.23,-7.23 -10.84,-4.52 -20.33,-11.3 -28.91,-19.42 -35.23,-35.24 -35.23,-92.15 -0.45,-127.38 0.45,0.9 0.45,0.9 0.45,0.45l0 0zm979.31 -61.88c-5.41,-4.97 -11.29,-8.59 -18.06,-10.84 -7.68,-2.71 -15.81,-4.52 -23.94,-5.42 -8.13,-0.9 -16.26,-1.36 -24.4,-1.36 -16.26,0 -32.98,2.71 -48.33,8.59 -15.35,5.42 -29.36,13.55 -42.01,23.48 -0.08,-13 -9.81,-17.61 -20.22,-17.48 -12.64,0.16 -26.43,4.44 -26.43,18.39l0 227.56c0.27,26.58 46.65,26.01 46.65,0.54l0 -116.99c0,-12.2 2.26,-23.95 7.23,-35.24 4.52,-10.84 10.84,-20.33 19.42,-28.46 8.13,-8.13 18.07,-14.9 28.46,-19.42 11.3,-4.52 23.04,-7.23 35.24,-7.23 12.19,0 23.94,2.26 35.23,6.32 3.61,1.81 7.23,2.71 11.3,2.71 3.61,0 7.23,-0.46 10.39,-2.26 3.17,-1.35 5.87,-3.16 8.58,-5.87 2.26,-2.26 4.52,-5.42 5.88,-8.58 1.35,-3.17 2.26,-6.78 2.26,-10.39 0.46,-6.77 -2.26,-13.1 -7.23,-18.06zm-249.34 70.92c-23.04,-53.3 -75.43,-88.08 -133.25,-88.54 -79.5,0 -143.65,64.14 -144.09,143.65 0,79.5 64.59,144.09 144.09,144.09 34.33,0 67.76,-12.19 93.96,-34.78l0.9 -0.9c2.26,-1.81 4.52,-4.06 5.87,-6.77 8.58,-12.65 5.42,-29.36 -6.77,-37.95 -10.39,-6.77 -23.94,-5.42 -32.98,3.17 -0.9,0.9 -3.61,3.16 -3.61,3.61l-0.46 0.45c-7.68,6.32 -16.26,11.75 -25.75,14.9 -9.94,3.61 -20.33,5.42 -31.17,4.97 -9.94,0 -19.42,-1.36 -28.91,-4.52 -9.04,-3.17 -17.62,-7.23 -25.3,-13.1 -7.68,-5.42 -14.46,-12.2 -19.87,-19.88 -5.88,-7.68 -9.94,-16.71 -12.65,-25.75l203.26 0c7.23,0 14.01,-2.71 18.97,-7.68 5.42,-4.97 8.13,-11.75 7.68,-18.97 0.46,-19.42 -3.16,-38.4 -9.94,-56.01l0 0zm-219.98 28.91c2.71,-9.48 6.78,-18.06 12.65,-25.75 5.42,-7.68 12.2,-14.45 19.88,-19.87 7.68,-5.42 16.26,-9.94 25.3,-13.1 9.03,-3.16 18.97,-4.52 28.46,-4.52 9.48,0 19.42,1.36 28.46,4.52 18.06,5.88 33.88,17.62 45.17,32.98 5.87,7.68 9.94,16.72 13.1,25.75l-173.01 0zm377.63 131c-10.39,0 -18.52,8.59 -18.52,18.97 0,10.39 8.59,18.52 18.97,18.52 10.39,0 18.52,-8.58 18.52,-18.52 0,-10.84 -8.58,-18.97 -18.97,-18.97zm0 33.43c-8.12,0.45 -14.9,-5.88 -15.35,-14 -0.46,-8.13 5.87,-14.91 14,-15.36 8.13,-0.46 14.9,5.87 15.36,14l0 0.9c0.45,7.68 -5.88,14.46 -13.55,14.46l-0.46 0zm4.33 -14.29c2.26,-0.45 3.61,-2.26 3.61,-4.52 0,-1.81 -0.46,-3.16 -1.81,-4.06 -1.81,-0.9 -4.07,-1.36 -6.32,-1.36 -2.26,0 -4.97,0 -7.23,0.46l0 18.52 4.07 0 0 -7.23 1.8 0c2.26,0 3.61,0.9 4.07,2.71 0.45,1.36 0.9,3.17 1.35,4.52l4.52 0c-0.9,-1.35 -1.35,-3.16 -1.35,-4.52 0.45,-1.81 -0.9,-3.61 -2.71,-4.52l0 0zm-5.42 -1.35l-2.26 0 0 -5.42 2.26 0c2.71,0 4.07,1.35 4.07,2.71 0.45,1.81 -1.81,3.16 -4.07,2.71l0 0zm-1646.04 -329.3c-2.71,-2.26 -27.1,-20.78 -79.5,-20.78 -13.55,0 -27.55,1.35 -41.1,3.61 -9.94,-69.12 -67.31,-102.54 -69.56,-104.35l-14.01 -8.13 -9.03 13.1c-11.3,17.62 -19.88,37.49 -24.85,57.82 -9.48,39.3 -3.61,76.34 16.26,107.96 -23.94,13.55 -62.78,16.71 -70.92,17.17l-641.43 0c-16.71,0 -30.26,13.55 -30.26,30.26 -0.9,56.01 8.58,112.02 28.01,164.88 22.13,57.82 55.11,100.73 97.57,126.93 47.88,29.36 126.03,46.08 214.11,46.08 39.75,0 79.5,-3.61 118.8,-10.84 54.66,-9.94 107.06,-28.91 155.39,-56.47 39.75,-23.04 75.43,-52.4 105.7,-86.72 51.05,-57.37 81.31,-121.51 103.44,-178.43l9.04 0c55.56,0 89.89,-22.13 108.86,-41.11 12.64,-11.75 22.13,-26.2 28.91,-42.46l4.07 -11.75 -9.49 -6.77zm-901.08 46.87l85.83 0c4.07,0 7.68,-3.16 7.68,-7.68l0 -76.79c0,-4.07 -3.16,-7.68 -7.68,-7.68l-85.83 0c-4.06,0 -7.68,3.16 -7.68,7.68l0 76.79c0.46,4.52 3.61,7.68 7.68,7.68zm118.35 0l85.82 0c4.07,0 7.68,-3.16 7.68,-7.68l0 -76.79c0,-4.07 -3.17,-7.68 -7.68,-7.68l-85.82 0c-4.07,0 -7.68,3.16 -7.68,7.68l0 76.79c0.46,4.52 3.61,7.68 7.68,7.68l0 0zm120.6 0l85.83 0c4.06,0 7.68,-3.16 7.68,-7.68l0 -76.79c0,-4.07 -3.16,-7.68 -7.68,-7.68l-85.83 0c-4.06,0 -7.68,3.16 -7.68,7.68l0 76.79c0,4.52 3.16,7.68 7.68,7.68zm118.8 0l85.82 0c4.07,0 7.68,-3.16 7.68,-7.68l0 -76.79c0,-4.07 -3.17,-7.68 -7.68,-7.68l-85.82 0c-4.07,0 -7.68,3.16 -7.68,7.68l0 76.79c0,4.52 3.61,7.68 7.68,7.68zm-239.41 -109.77l85.82 0c4.07,0 7.68,-3.61 7.68,-7.68l0 -76.79c0,-4.06 -3.17,-7.68 -7.68,-7.68l-85.82 0c-4.07,0 -7.68,3.16 -7.68,7.68l0 76.79c0.46,4.06 3.61,7.68 7.68,7.68l0 0zm120.6 0l85.83 0c4.06,0 7.68,-3.61 7.68,-7.68l0 -76.79c0,-4.06 -3.16,-7.68 -7.68,-7.68l-85.83 0c-4.06,0 -7.68,3.16 -7.68,7.68l0 76.79c0,4.06 3.16,7.68 7.68,7.68l0 0zm118.8 0l85.82 0c4.07,0 7.68,-3.61 7.68,-7.68l0 -76.79c0,-4.06 -3.61,-7.68 -7.68,-7.68l-85.82 0c-4.07,0 -7.68,3.16 -7.68,7.68l0 76.79c0,4.06 3.61,7.68 7.68,7.68l0 0zm0 -110.22l85.82 0c4.07,0 7.68,-3.16 7.68,-7.68l0 -76.79c0,-4.07 -3.61,-7.68 -7.68,-7.68l-85.82 -0.01c-4.07,0 -7.68,3.17 -7.68,7.68l0 76.79c0,4.06 3.61,7.68 7.68,7.68l0 0zm119.7 219.98l85.83 0c4.06,0 7.68,-3.16 7.68,-7.68l0 -76.79c0,-4.07 -3.16,-7.68 -7.68,-7.68l-85.83 0c-4.06,0 -7.68,3.16 -7.68,7.68l0 76.79c0.46,4.52 3.61,7.68 7.68,7.68z"/>
   </g>
   <rect class="fil1" x="0" y="-0" width="3396.69" height="3396.69"/>
  </g>
 </g>
</svg>
