<?xml version="1.0" encoding="UTF-8"?>
<!DOCTYPE svg PUBLIC "-//W3C//DTD SVG 1.1//EN" "http://www.w3.org/Graphics/SVG/1.1/DTD/svg11.dtd">
<!-- Creator: CorelDRAW 2019 (64-Bit) -->
<svg xmlns="http://www.w3.org/2000/svg" xml:space="preserve" width="1.9685in" height="1.9685in" version="1.1" style="shape-rendering:geometricPrecision; text-rendering:geometricPrecision; image-rendering:optimizeQuality; fill-rule:evenodd; clip-rule:evenodd"
viewBox="0 0 1824.51 1824.51"
 xmlns:xlink="http://www.w3.org/1999/xlink"
 xmlns:xodm="http://www.corel.com/coreldraw/odm/2003">
 <defs>
  <style type="text/css">
   <![CDATA[
    .fil0 {fill:none}
    .fil4 {fill:#2E2E2E}
    .fil2 {fill:#2F2F2F}
    .fil1 {fill:#D00000}
    .fil3 {fill:#FFFDFD}
   ]]>
  </style>
 </defs>
 <g id="Layer_x0020_1">
  <metadata id="CorelCorpID_0Corel-Layer"/>
  <rect class="fil0" width="1824.51" height="1824.51"/>
  <g id="_2468246349680">
   <path class="fil1" d="M451.37 889.31l81.35 118.37c2.74,3.97 14.03,15.58 7.32,20.37 -3.15,2.25 -26.9,1.02 -32.67,0.99 -6.11,-6.98 -13.46,-19.85 -19.39,-28.55 -7.06,-10.34 -13.47,-19.52 -20.05,-29.46 -5.23,-7.89 -36.51,-55.93 -40.25,-58.31 -8.55,6.92 -15.59,15.77 -23.43,23.19 -15.04,14.24 -12.13,8.25 -12.13,35.52 0,15.73 0.1,31.48 0.08,47.2 -0.01,8.92 -2.56,10.53 -11.53,10.5 -11.38,-0.04 -13.37,1.58 -20.47,-3.35l0.14 -226.62c4.39,-2.44 0.83,-3.17 8.17,-3.17 27.54,0 23.62,-1.6 23.61,20.87 -0.01,24.21 -1.1,66.66 0.23,87 5.27,-2.76 22.58,-21.26 27.89,-26.81 9.24,-9.67 18.45,-18.1 27.73,-27.83l47.55 -47.86c2.89,-3.06 3.31,-5.37 9.46,-5.37l29.93 0.4c3.24,10.25 -0.63,8.64 -16.75,25.18 -7.29,7.48 -13.9,14.61 -22.16,22.52 -6.14,5.88 -42.1,41.05 -44.61,45.23zm-210.87 -177.52l0 400.94c0,2.78 0.84,3.62 3.62,3.62l406.97 0c2.78,0 3.62,-0.84 3.62,-3.62l0 -400.94c0,-2.78 -0.84,-3.62 -3.62,-3.62l-406.97 0c-2.78,0 -3.62,0.84 -3.62,3.62z"/>
   <path class="fil2" d="M769.44 801.15l0 222.21c0,8.59 15.45,6.04 26.57,6.04 2.9,0 3.55,-1.96 6.04,-3.62 0,-23.44 -1.33,-50.83 -0.09,-73.76 0.38,-6.96 8.31,-12.36 16.09,-20.14 5.14,-5.14 13.73,-14.88 19.02,-18.42 3.98,2.67 8.79,11.39 11.9,15.87l63.64 94.56c5.88,9.16 15.9,5.5 37.98,5.5 0.87,-3.75 1.54,-3.5 2.42,-7.25l-68.59 -99.27c-7.72,-11.61 -15.58,-22.22 -23.19,-33.57l86.04 -86.66c-0.94,-3.05 -1.23,-3.07 -1.5,-6.33 -10.13,-2.36 -22.06,-1.21 -32.6,-1.21 -4.12,0 -52.17,50.36 -55.86,54.04 -8.33,8.34 -49.97,51.12 -55.25,54.65l0 -105.07c-7.94,-5.32 -9.14,-3.62 -24.15,-3.62 -4.07,0 -8.45,2.13 -8.45,6.04z"/>
   <path class="fil3" d="M451.37 889.31c2.51,-4.18 38.47,-39.35 44.61,-45.23 8.27,-7.91 14.87,-15.04 22.16,-22.52 16.12,-16.54 20,-14.93 16.75,-25.18l-29.93 -0.4c-6.16,0 -6.58,2.31 -9.46,5.37l-47.55 47.86c-9.28,9.74 -18.49,18.16 -27.73,27.83 -5.31,5.56 -22.62,24.05 -27.89,26.81 -1.32,-20.34 -0.23,-62.79 -0.23,-87 0.01,-22.47 3.93,-20.87 -23.61,-20.87 -7.33,0 -3.78,0.73 -8.17,3.17l-0.14 226.62c7.1,4.93 9.09,3.31 20.47,3.35 8.97,0.03 11.52,-1.58 11.53,-10.5 0.02,-15.72 -0.08,-31.47 -0.08,-47.2 0,-27.27 -2.9,-21.28 12.13,-35.52 7.84,-7.42 14.88,-16.27 23.43,-23.19 3.74,2.39 35.02,50.43 40.25,58.31 6.58,9.94 12.99,19.12 20.05,29.46 5.93,8.69 13.28,21.56 19.39,28.55 5.77,0.03 29.52,1.26 32.67,-0.99 6.71,-4.79 -4.58,-16.4 -7.32,-20.37l-81.35 -118.37z"/>
   <path class="fil4" d="M1084.64 920.7l0 4.83 -72.46 0c0,-10.24 5.36,-19.92 10.14,-26.09 2.93,-3.78 5.62,-5.79 9.97,-8.14 5.67,-3.08 7.02,-2.7 14.59,-3.62 21.77,-2.65 37.76,12.45 37.76,33.03zm-107.48 15.7l0 19.32c0,41.91 31.77,76.08 73.67,76.08 20.49,0 21.97,1.09 42.04,-3.85 7.82,-1.93 13.34,-5.29 20.76,-7.02l0 -25.36c-2.69,-1.42 -3.63,-2.01 -6.04,-3.62 -4.04,0.94 -9.79,3.47 -14.33,5 -15.04,5.08 -35.13,7.03 -50.68,3.25 -20.98,-5.09 -31.6,-24.76 -31.6,-46.9l103.85 0c13.71,0 4.18,-52.77 -10.66,-71.45 -23.35,-29.39 -71.69,-30.43 -96.46,-10.3 -18.97,15.41 -30.55,39.07 -30.55,64.85z"/>
   <path class="fil2" d="M1344.28 1004.03c-31.16,0 -31.42,-29.2 -19.07,-40.81 13.64,-12.83 42.89,-10.09 52.75,-11.33 2.21,-0.28 9.8,-2.82 9.8,1.42 0,29.98 -11.18,50.72 -43.47,50.72zm-43.47 -130.43c0.22,2.69 6.37,24.45 13.4,25.03 2.52,0.21 19.47,-7.5 28.56,-9.64 8.51,-2.01 25.77,-2.58 32.91,1.52 12.56,7.22 12.08,21 12.08,35.02 -28.9,0 -76.59,1.62 -93.71,24.63 -15.24,20.47 -13.11,51.47 3.41,68.09 17.58,17.69 60.54,19.06 84.11,1.31 3.4,-2.56 5.45,-5.92 9.82,-7.09 0.15,6.5 2.42,9.86 2.42,16.91 11.12,0 26.57,2.55 26.57,-6.04l0 -113.52c0,-14.68 -6.55,-28.94 -14.14,-36.59 -21.13,-21.28 -68.2,-15.69 -93.71,-4.85 -4.47,1.9 -6.93,4.09 -11.71,5.2z"/>
   <path class="fil2" d="M1462.63 900.18c0,18.11 -0.55,22.26 14.16,36.56 15.93,15.47 75.21,26.08 75.21,45.56 0,29.75 -51.07,22.68 -72.13,14.16 -18.32,-7.41 -8.83,-4.33 -17.24,-2.09l0 26.57c27.67,14.64 88.44,18.8 111.99,-9.98 10.03,-12.26 13.29,-37.37 3.44,-52.32 -12.42,-18.87 -43.44,-27.7 -66.62,-37.23 -23.94,-9.85 -21.08,-26.43 -5.25,-32.01 24.22,-8.55 58.82,7.94 63.92,8.36 0.44,-0.82 9.66,-21.64 9.66,-21.74 0,-9.21 -7.93,-10.43 -21.24,-13.79 -23.43,-5.92 -55.9,-6.97 -75.16,5.55 -10.11,6.57 -20.75,16.21 -20.75,32.39z"/>
   <path class="fil2" d="M1193.33 883.27c0,-9.17 -1.21,-13.14 -1.21,-21.74 -12.38,0 -28.98,-2.74 -28.98,6.04l0 155.79c0,8.68 16.02,6.04 27.78,6.04 2.9,0 3.55,-1.96 6.04,-3.62 0,-15.41 -1.14,-91.06 0.66,-99.57 4.35,-20.56 17.6,-34.22 37.65,-37.32 7.35,-1.14 13.12,1.64 22.08,1.64 4.15,-6.2 2.82,-1.88 4.66,-13.45 0.85,-5.32 2.47,-11.65 2.58,-16.74 -16.29,-0.36 -27.29,-7.97 -51.55,5.21 -11.03,5.99 -15.79,14.88 -19.7,17.74z"/>
  </g>
 </g>
</svg>
