<?xml version="1.0" encoding="UTF-8"?>
<!DOCTYPE svg PUBLIC "-//W3C//DTD SVG 1.1//EN" "http://www.w3.org/Graphics/SVG/1.1/DTD/svg11.dtd">
<!-- Creator: CorelDRAW 2019 (64-Bit) -->
<svg xmlns="http://www.w3.org/2000/svg" xml:space="preserve" width="5mm" height="5mm" version="1.1" style="shape-rendering:geometricPrecision; text-rendering:geometricPrecision; image-rendering:optimizeQuality; fill-rule:evenodd; clip-rule:evenodd"
viewBox="0 0 463.42 463.42"
 xmlns:xlink="http://www.w3.org/1999/xlink"
 xmlns:xodm="http://www.corel.com/coreldraw/odm/2003">
 <defs>
  <style type="text/css">
   <![CDATA[
    .fil0 {fill:none}
    .fil4 {fill:#2E2E2E}
    .fil2 {fill:#2F2F2F}
    .fil1 {fill:#D00000}
    .fil3 {fill:#FFFDFD}
   ]]>
  </style>
 </defs>
 <g id="Layer_x0020_1">
  <metadata id="CorelCorpID_0Corel-Layer"/>
  <rect class="fil0" width="463.42" height="463.42"/>
  <g id="_2468621156720">
   <path class="fil1" d="M114.65 225.88l20.66 30.07c0.7,1.01 3.56,3.96 1.86,5.17 -0.8,0.57 -6.83,0.26 -8.3,0.25 -1.55,-1.77 -3.42,-5.04 -4.92,-7.25 -1.79,-2.63 -3.42,-4.96 -5.09,-7.48 -1.33,-2 -9.27,-14.21 -10.22,-14.81 -2.17,1.76 -3.96,4.01 -5.95,5.89 -3.82,3.62 -3.08,2.1 -3.08,9.02 0,4 0.03,8 0.02,11.99 -0,2.27 -0.65,2.68 -2.93,2.67 -2.89,-0.01 -3.4,0.4 -5.2,-0.85l0.04 -57.56c1.11,-0.62 0.21,-0.81 2.07,-0.81 7,0 6,-0.41 6,5.3 -0,6.15 -0.28,16.93 0.06,22.1 1.34,-0.7 5.74,-5.4 7.08,-6.81 2.35,-2.46 4.69,-4.6 7.04,-7.07l12.08 -12.16c0.73,-0.78 0.84,-1.36 2.4,-1.36l7.6 0.1c0.82,2.6 -0.16,2.19 -4.26,6.4 -1.85,1.9 -3.53,3.71 -5.63,5.72 -1.56,1.49 -10.69,10.43 -11.33,11.49zm-53.56 -45.09l0 101.84c0,0.71 0.21,0.92 0.92,0.92l103.37 0c0.71,0 0.92,-0.21 0.92,-0.92l0 -101.84c0,-0.71 -0.21,-0.92 -0.92,-0.92l-103.37 0c-0.71,0 -0.92,0.21 -0.92,0.92z"/>
   <path class="fil2" d="M195.44 203.49l0 56.44c0,2.18 3.92,1.53 6.75,1.53 0.74,0 0.9,-0.5 1.53,-0.92 0,-5.95 -0.34,-12.91 -0.02,-18.73 0.1,-1.77 2.11,-3.14 4.09,-5.11 1.31,-1.31 3.49,-3.78 4.83,-4.68 1.01,0.68 2.23,2.89 3.02,4.03l16.16 24.02c1.49,2.33 4.04,1.4 9.65,1.4 0.22,-0.95 0.39,-0.89 0.61,-1.84l-17.42 -25.21c-1.96,-2.95 -3.96,-5.64 -5.89,-8.53l21.85 -22.01c-0.24,-0.77 -0.31,-0.78 -0.38,-1.61 -2.57,-0.6 -5.6,-0.31 -8.28,-0.31 -1.05,0 -13.25,12.79 -14.19,13.73 -2.12,2.12 -12.69,12.98 -14.03,13.88l0 -26.69c-2.02,-1.35 -2.32,-0.92 -6.13,-0.92 -1.03,0 -2.15,0.54 -2.15,1.53z"/>
   <path class="fil3" d="M114.65 225.88c0.64,-1.06 9.77,-10 11.33,-11.49 2.1,-2.01 3.78,-3.82 5.63,-5.72 4.09,-4.2 5.08,-3.79 4.26,-6.4l-7.6 -0.1c-1.56,0 -1.67,0.59 -2.4,1.36l-12.08 12.16c-2.36,2.47 -4.7,4.61 -7.04,7.07 -1.35,1.41 -5.75,6.11 -7.08,6.81 -0.34,-5.17 -0.06,-15.95 -0.06,-22.1 0,-5.71 1,-5.3 -6,-5.3 -1.86,0 -0.96,0.19 -2.07,0.81l-0.04 57.56c1.8,1.25 2.31,0.84 5.2,0.85 2.28,0.01 2.93,-0.4 2.93,-2.67 0,-3.99 -0.02,-7.99 -0.02,-11.99 0,-6.93 -0.74,-5.4 3.08,-9.02 1.99,-1.88 3.78,-4.13 5.95,-5.89 0.95,0.61 8.9,12.81 10.22,14.81 1.67,2.53 3.3,4.86 5.09,7.48 1.51,2.21 3.37,5.48 4.92,7.25 1.47,0.01 7.5,0.32 8.3,-0.25 1.7,-1.22 -1.16,-4.17 -1.86,-5.17l-20.66 -30.07z"/>
   <path class="fil4" d="M275.5 233.86l0 1.23 -18.4 0c0,-2.6 1.36,-5.06 2.57,-6.63 0.75,-0.96 1.43,-1.47 2.53,-2.07 1.44,-0.78 1.78,-0.69 3.71,-0.92 5.53,-0.67 9.59,3.16 9.59,8.39zm-27.3 3.99l0 4.91c0,10.64 8.07,19.32 18.71,19.32 5.2,0 5.58,0.28 10.68,-0.98 1.99,-0.49 3.39,-1.34 5.27,-1.78l0 -6.44c-0.68,-0.36 -0.92,-0.51 -1.53,-0.92 -1.03,0.24 -2.49,0.88 -3.64,1.27 -3.82,1.29 -8.92,1.79 -12.87,0.83 -5.33,-1.29 -8.03,-6.29 -8.03,-11.91l26.38 0c3.48,0 1.06,-13.4 -2.71,-18.15 -5.93,-7.47 -18.21,-7.73 -24.5,-2.62 -4.82,3.91 -7.76,9.92 -7.76,16.47z"/>
   <path class="fil2" d="M341.45 255.02c-7.91,0 -7.98,-7.42 -4.84,-10.37 3.46,-3.26 10.89,-2.56 13.4,-2.88 0.56,-0.07 2.49,-0.72 2.49,0.36 0,7.61 -2.84,12.88 -11.04,12.88zm-11.04 -33.13c0.06,0.68 1.62,6.21 3.4,6.36 0.64,0.05 4.95,-1.9 7.26,-2.45 2.16,-0.51 6.55,-0.66 8.36,0.39 3.19,1.83 3.07,5.33 3.07,8.89 -7.34,0 -19.45,0.41 -23.8,6.26 -3.87,5.2 -3.33,13.07 0.87,17.3 4.47,4.49 15.38,4.84 21.36,0.33 0.86,-0.65 1.38,-1.5 2.49,-1.8 0.04,1.65 0.61,2.5 0.61,4.29 2.82,0 6.75,0.65 6.75,-1.53l0 -28.83c0,-3.73 -1.66,-7.35 -3.59,-9.29 -5.37,-5.41 -17.32,-3.99 -23.8,-1.23 -1.14,0.48 -1.76,1.04 -2.97,1.32z"/>
   <path class="fil2" d="M371.51 228.64c0,4.6 -0.14,5.65 3.6,9.29 4.05,3.93 19.1,6.62 19.1,11.57 0,7.56 -12.97,5.76 -18.32,3.6 -4.65,-1.88 -2.24,-1.1 -4.38,-0.53l0 6.75c7.03,3.72 22.46,4.78 28.45,-2.53 2.55,-3.11 3.38,-9.49 0.87,-13.29 -3.16,-4.79 -11.03,-7.03 -16.92,-9.46 -6.08,-2.5 -5.35,-6.71 -1.33,-8.13 6.15,-2.17 14.94,2.02 16.24,2.12 0.11,-0.21 2.45,-5.5 2.45,-5.52 0,-2.34 -2.01,-2.65 -5.39,-3.5 -5.95,-1.5 -14.2,-1.77 -19.09,1.41 -2.57,1.67 -5.27,4.12 -5.27,8.23z"/>
   <path class="fil2" d="M303.1 224.35c0,-2.33 -0.31,-3.34 -0.31,-5.52 -3.14,0 -7.36,-0.7 -7.36,1.53l0 39.57c0,2.21 4.07,1.53 7.06,1.53 0.74,0 0.9,-0.5 1.53,-0.92 0,-3.91 -0.29,-23.13 0.17,-25.29 1.1,-5.22 4.47,-8.69 9.56,-9.48 1.87,-0.29 3.33,0.42 5.61,0.42 1.05,-1.57 0.72,-0.48 1.18,-3.42 0.22,-1.35 0.63,-2.96 0.66,-4.25 -4.14,-0.09 -6.93,-2.03 -13.09,1.32 -2.8,1.52 -4.01,3.78 -5,4.51z"/>
  </g>
 </g>
</svg>
