<?xml version="1.0" encoding="UTF-8"?>
<!DOCTYPE svg PUBLIC "-//W3C//DTD SVG 1.1//EN" "http://www.w3.org/Graphics/SVG/1.1/DTD/svg11.dtd">
<!-- Creator: CorelDRAW 2019 (64-Bit) -->
<svg xmlns="http://www.w3.org/2000/svg" xml:space="preserve" width="1.9685in" height="1.9685in" version="1.1" style="shape-rendering:geometricPrecision; text-rendering:geometricPrecision; image-rendering:optimizeQuality; fill-rule:evenodd; clip-rule:evenodd"
viewBox="0 0 1824.51 1824.51"
 xmlns:xlink="http://www.w3.org/1999/xlink"
 xmlns:xodm="http://www.corel.com/coreldraw/odm/2003">
 <defs>
  <style type="text/css">
   <![CDATA[
    .str2 {stroke:black;stroke-width:2.78;stroke-miterlimit:2.61313}
    .str1 {stroke:black;stroke-width:2.78;stroke-miterlimit:2.61313}
    .str0 {stroke:#C4C4C4;stroke-width:2.78;stroke-miterlimit:2.61313;stroke-dasharray:2.780548 2.780548}
    .fil0 {fill:none}
    .fil1 {fill:#12557C}
    .fil5 {fill:#96FEE1}
    .fil6 {fill:#7A9CFF}
    .fil4 {fill:#BCFFB7}
    .fil3 {fill:#E2FD95}
    .fil2 {fill:#FDDB8A}
    .fil7 {fill:#FFAD84}
   ]]>
  </style>
 </defs>
 <g id="Layer_x0020_1">
  <metadata id="CorelCorpID_0Corel-Layer"/>
  <rect class="fil0" width="1824.51" height="1824.51"/>
  <g id="_2468041773760">
   <path class="fil0 str0" d="M1075.21 829.73c46.61,0 84.4,37.77 84.4,84.35 0,46.59 -37.79,84.35 -84.4,84.35 -46.62,0 -84.41,-37.77 -84.41,-84.35 0,-46.59 37.79,-84.35 84.41,-84.35zm0 24.56c33.04,0 59.83,26.77 59.83,59.79 0,33.02 -26.78,59.79 -59.83,59.79 -33.04,0 -59.83,-26.77 -59.83,-59.79 0,-33.02 26.79,-59.79 59.83,-59.79zm0 23.74c19.92,0 36.07,16.14 36.07,36.05 0,19.91 -16.15,36.05 -36.07,36.05 -19.92,0 -36.07,-16.14 -36.07,-36.05 0,-19.91 16.15,-36.05 36.07,-36.05zm0 24.35c6.47,0 11.71,5.24 11.71,11.7 0,6.46 -5.24,11.7 -11.71,11.7 -6.47,0 -11.71,-5.24 -11.71,-11.7 0,-6.46 5.24,-11.7 11.71,-11.7zm-76.45 -64.74l152.89 152.89m-76.44 -184.55l0 216.22m-76.45 -31.67l152.89 -152.89m-184.55 76.45l216.22 0"/>
   <path class="fil1" d="M1502.2 874.5c25.22,-4.73 29.93,21.72 28.23,43.85 -2.48,32.4 -23.43,52.55 -44,38.18 -5.29,-3.69 -5.74,-4.87 -9.48,-9.08 -6.12,-6.91 -6.35,-5.47 -5.75,-12.79l2.6 -33.78c0.72,-11.01 17.1,-24.26 28.4,-26.38zm-426.99 -70.94c61.08,0 110.59,49.48 110.59,110.52 0,30.51 -12.38,58.15 -32.4,78.15 -20.01,20 -47.66,32.37 -78.19,32.37 -61.08,0 -110.59,-49.48 -110.59,-110.52 0,-30.52 12.38,-58.15 32.4,-78.15 20.01,-20 47.66,-32.37 78.19,-32.37zm105.76 110.52c0,-58.37 -47.35,-105.69 -105.76,-105.69 -29.21,0 -55.65,11.83 -74.79,30.96 -19.13,19.12 -30.97,45.54 -30.97,74.74 0,58.37 47.35,105.69 105.76,105.69 29.21,0 55.65,-11.83 74.79,-30.96 19.13,-19.12 30.97,-45.54 30.97,-74.74zm296.15 -53.72c-0.74,-11.77 2.3,-34.24 3.2,-47.18 2.03,-29.33 6.94,-32.94 -13.87,-33.19 -26.2,-0.32 -21.95,3.16 -23.68,26.6l-13.03 175.2c-0.31,4.36 -0.23,6.41 3.46,7.78 4.51,1.67 19.19,1.56 23.77,0.06 6.72,-2.19 5.73,-11.36 6.04,-19.09 2.63,1.56 8.28,11 20.19,17.4 14.38,7.72 35.95,6.45 49.35,-0.85 5.24,-2.85 11.54,-7.04 14.4,-10.55 3.21,-3.93 7.35,-8.54 10.19,-14 18.15,-34.92 19.8,-93.53 -8.29,-112.73 -10.86,-7.43 -25.34,-10.18 -40.56,-6.96 -14.67,3.11 -22.96,11.11 -31.17,17.52zm-95.84 -74.93c-13.94,2.31 -17.79,9.48 -17.29,24.4 0.5,15.44 13.26,16.4 27.44,14.49 14.1,-1.91 17.24,-11.98 16.46,-25.04 -0.86,-14.4 -14.95,-15.78 -26.61,-13.85zm19.33 77.53c0.6,-8.2 3.63,-15.77 -4.97,-17.79 -6.37,-1.5 -16.68,-1.26 -23.32,-0.36 -10.16,1.36 -8.73,4.66 -9.43,14.3l-8.29 112.58c-0.96,12.8 -3.05,16.44 4.36,17.99 6.33,1.33 17.18,1.27 23.63,0.42 10.74,-1.42 8.8,-4.3 9.56,-14.36l8.47 -112.78zm-70.83 -70.08c0.67,-9.14 3.39,-12.98 -18.85,-12.9 -4.47,0.01 -11.02,0.26 -14.92,1.99 -4.72,2.09 -3.74,6.27 -4.14,11.73l-13.76 182.88c-0.55,6.87 -2.42,11.26 3.9,12.86 6.5,1.65 24.71,1.91 30.6,-0.76 4.03,-1.82 3.17,-7.14 3.58,-12.76l13.58 -183.05zm-104.84 52.17c2.55,-33.92 8.33,-36.73 -17.11,-36.4 -16.15,0.2 -18.22,1.55 -18.86,10.79 -0.56,8.01 -0.8,17.85 -2.03,25.59l-16.12 0.11c1,2.09 2.3,3.82 3.76,5.95 8.4,12.21 14.96,30.41 17.4,45.5 3.48,21.45 0.14,44.16 -7.17,62.55 -2.2,5.52 -4.81,7.25 -2.15,13.53 5.93,13.95 16.69,19.08 34,20 8.9,0.48 25.08,-0.65 30.06,-6.25 4.01,-4.5 5.17,-21.39 3.79,-25.94 -2.54,-8.45 -12.69,5.25 -26.21,-1.19 -7.44,-3.55 -6.58,-15.6 -5.85,-25.47 1.42,-19.14 2.99,-38.42 4.23,-57.61 7.52,-1.47 29.52,2.12 33.11,-2.33 4.66,-5.78 5.06,-22.6 0.82,-28.29 -5.93,-1.41 -24.43,-0.54 -31.68,-0.54zm-244.83 -45.72c1.11,-15.45 3.91,-18.84 -13.91,-19.32 -5.32,-0.15 -10.87,-0.14 -15.96,0.96 -6.5,1.39 -6.87,2.8 -7.33,9.48 -1.49,21.1 -3.14,42.18 -4.73,63.09 -3.21,42.21 -6.07,84.38 -9.53,126.58 -0.6,7.3 -0.13,8.86 7.21,9.91 5.1,0.73 11.45,0.81 16.65,0.53 16.84,-0.92 13.68,-4.31 14.88,-19.61 1,-12.84 -2.63,-15.54 -5.56,-27.05 -2.47,-9.66 -3.73,-19.83 -3.62,-30.18 0.42,-40.1 17.43,-52.6 18.41,-66.85l3.51 -47.53zm-145.66 75.6c24.85,-6.54 30.25,20.57 29.06,41.97 -1.11,19.74 -10.15,42.01 -28.59,43.89 -12.63,1.29 -19.21,-7.47 -24.66,-12.8 -8.99,-8.78 -6.14,-11.6 -4.87,-29.15 1.22,-16.83 -0.58,-21.42 6.86,-29.38 4.94,-5.28 12.13,-11.89 22.2,-14.54zm-30.99 -9.23c1.06,-17.92 4.95,-20.31 -10.43,-21.45 -18.53,-1.38 -20.37,2.11 -21.05,12.26 -1.36,20.41 -2.98,40.87 -4.52,61.23 -1.56,20.79 -3.07,41.19 -4.58,61.95 -1.01,13.77 -5.41,50.04 -3.8,61.49 7.51,3.37 16.41,3.92 25.82,2.97 13.02,-1.3 11.56,-3.98 12.44,-15.99 1.29,-17.68 2.63,-35.48 3.9,-53.18 8.27,6.86 15.43,16.01 31.99,17.84 27.95,3.09 50.25,-12.78 60.72,-37.76 12.76,-30.44 18.57,-92.02 -19.17,-109.47 -23.91,-11.05 -50.54,1.06 -68.15,17.3l-3.17 2.8zm-93.25 -20.65c-0.83,-24.2 7.81,-33.21 -4.66,-35.47 -4,-0.73 -9.15,-1 -13.23,-0.92 -16.92,0.35 -17.69,2.19 -18.21,9.98 -0.56,8.25 -0.83,18.49 -2.09,26.32 -17.74,0.69 -19.14,-1.17 -21.42,5.31 -0.78,2.21 -0.93,3.7 -1.2,6.16 -1.22,11.1 -2.17,19.2 6.6,19.47 4.45,0.14 9.26,-0.04 13.76,-0.04 -1.04,17.94 -2.59,36.01 -3.93,53.94 -1.23,16.45 -3.73,36.04 5,48.89 10.37,15.27 37.63,17.27 55.5,10.94 12.35,-4.38 9.4,-20.79 8.68,-31.54 -11.87,-1.72 -34.82,17.65 -31.64,-24.5 1.45,-19.2 3.09,-38.53 4.19,-57.73 6.71,0 29.58,1.76 32.89,-1.82 3.81,-4.11 5.9,-25.58 1.22,-28.37 -4.72,-1.4 -24.9,-0.61 -31.44,-0.61zm-123.02 82.35c-1.1,22.65 1.11,23.22 -12.34,32.4 -19.77,13.5 -42.21,5.4 -37.09,-15.33 4.79,-19.37 32.51,-17.06 49.43,-17.06zm-73.92 -54.77c0,18.65 12.21,8.64 21.19,4.88 11.28,-4.73 43.88,-14.64 52.52,1.36 3.29,6.09 3.47,17.49 1.73,24.69 -24.25,1.38 -40.18,-1 -61.95,8.16 -15.88,6.68 -26.98,20.43 -26.98,42.27 0,43.2 53.57,47.28 79.54,28.8 2.67,-1.9 8.7,-7.14 10.16,-7.64l-0.28 12.9c7.23,4.52 22.67,2.82 30.08,0.16 2.08,-7.51 7.76,-91.32 7.76,-104.3 0,-49.26 -59.3,-47.29 -92.44,-36.06 -14.69,4.98 -21.33,8.48 -21.33,24.78zm-217.86 -7.38c0.19,-14.93 6.27,-21.01 -12.3,-21.01 -7.5,0 -18.1,-1.01 -19.22,6.7l-4.35 58.75c-0.92,12.88 -1.9,25.85 -2.87,38.69 -0.73,9.7 -3.35,30.05 -2.36,38.61 2.03,4.06 16.33,3.63 21.53,3.63 15.67,0 16.04,-3.08 16.53,-10.59l5.51 -74.32c1.09,-14.96 0.5,-9.87 8.26,-18.1 20.96,-22.22 42.01,-14.75 42.01,12.4 0,17.05 -2.42,36.12 -3.71,53.19 -0.68,8.89 -1.21,17.48 -1.96,26.41 -0.65,7.72 -1.1,11.01 15.54,11.01 25.45,0 21.6,-1.45 23.12,-21.34 1.29,-16.85 3.5,-58.58 5.3,-71.65 1.23,-8.93 33.18,-36.58 45.94,-14.79 5.4,9.22 3.77,22.18 2.96,33.27 -0.74,10.08 -6,66.68 -4.41,71.23 2.74,2.78 9.73,3.28 14.89,3.28 23.34,0 21.88,-1.66 22.76,-13.99 0.65,-9.13 1.36,-18.4 2.05,-27.52 1.69,-22.45 3.97,-38.31 3.97,-61.19 0,-45.27 -39.37,-54.94 -69.02,-39.44 -14.41,7.53 -19.23,15.48 -22.76,17.35 -2.53,-3.82 -3.21,-6.58 -6.21,-10.18 -8.77,-10.52 -22.22,-14.83 -37.14,-13.86 -24.44,1.59 -36.5,18.87 -44.03,23.45z"/>
   <path class="fil2 str1" d="M1075.21 914.09c-0.16,-0.18 -69.76,-32.27 -75.21,-34.88 -6.85,11.82 -9.45,30.02 -7.17,49.13l82.38 -14.25z"/>
   <path class="fil3 str1" d="M1118.3 858.13c-3.25,-3.31 -11.01,-8.18 -17.12,-9.94l-25.96 65.9 43.08 -55.96z"/>
   <path class="fil4 str1" d="M1062.58 972.47c6.96,1.14 14.7,1.69 21.51,0.61 -2.52,-19.44 -6.04,-39.51 -8.88,-58.99l-12.63 58.38z"/>
   <path class="fil5 str1" d="M1035.66 939.94c8.57,-5.19 34.96,-21.27 39.56,-25.85l-42.23 21.06c0.93,2.44 1.18,3.08 2.67,4.79z"/>
   <path class="fil6 str1" d="M1075.21 914.09l23.09 -0.42c-0.1,-1.93 -0.35,-4.07 -0.81,-5.73l-22.27 6.15z"/>
   <path class="fil7 str2" d="M1075.21 914.09l-22.04 -92.47c-13.82,1.91 -30.84,12.26 -38.37,18.93l60.41 73.54 60.12 73.85c2.97,-1.81 12.81,-11.52 13.68,-14.61 -23.63,-18.65 -52.55,-38.85 -73.8,-59.23z"/>
  </g>
 </g>
</svg>
