<?xml version="1.0" encoding="UTF-8"?>
<!DOCTYPE svg PUBLIC "-//W3C//DTD SVG 1.1//EN" "http://www.w3.org/Graphics/SVG/1.1/DTD/svg11.dtd">
<!-- Creator: CorelDRAW 2019 (64-Bit) -->
<svg xmlns="http://www.w3.org/2000/svg" xml:space="preserve" width="5mm" height="5mm" version="1.1" style="shape-rendering:geometricPrecision; text-rendering:geometricPrecision; image-rendering:optimizeQuality; fill-rule:evenodd; clip-rule:evenodd"
viewBox="0 0 463.42 463.42"
 xmlns:xlink="http://www.w3.org/1999/xlink"
 xmlns:xodm="http://www.corel.com/coreldraw/odm/2003">
 <defs>
  <style type="text/css">
   <![CDATA[
    .str2 {stroke:black;stroke-width:0.71;stroke-miterlimit:2.61313}
    .str1 {stroke:black;stroke-width:0.71;stroke-miterlimit:2.61313}
    .str0 {stroke:#C4C4C4;stroke-width:0.71;stroke-miterlimit:2.61313;stroke-dasharray:0.706259 0.706259}
    .fil0 {fill:none}
    .fil1 {fill:#12557C}
    .fil5 {fill:#96FEE1}
    .fil6 {fill:#7A9CFF}
    .fil4 {fill:#BCFFB7}
    .fil3 {fill:#E2FD95}
    .fil2 {fill:#FDDB8A}
    .fil7 {fill:#FFAD84}
   ]]>
  </style>
 </defs>
 <g id="Layer_x0020_1">
  <metadata id="CorelCorpID_0Corel-Layer"/>
  <rect class="fil0" width="463.42" height="463.42"/>
  <g id="_2467905431984">
   <path class="fil0 str0" d="M273.1 210.75c11.84,0 21.44,9.59 21.44,21.43 0,11.83 -9.6,21.43 -21.44,21.43 -11.84,0 -21.44,-9.59 -21.44,-21.43 0,-11.83 9.6,-21.43 21.44,-21.43zm0 6.24c8.39,0 15.2,6.8 15.2,15.19 0,8.39 -6.8,15.19 -15.2,15.19 -8.39,0 -15.2,-6.8 -15.2,-15.19 0,-8.39 6.8,-15.19 15.2,-15.19zm0 6.03c5.06,0 9.16,4.1 9.16,9.16 0,5.06 -4.1,9.16 -9.16,9.16 -5.06,0 -9.16,-4.1 -9.16,-9.16 0,-5.06 4.1,-9.16 9.16,-9.16zm0 6.18c1.64,0 2.97,1.33 2.97,2.97 0,1.64 -1.33,2.97 -2.97,2.97 -1.64,0 -2.97,-1.33 -2.97,-2.97 0,-1.64 1.33,-2.97 2.97,-2.97zm-19.42 -16.45l38.83 38.83m-19.42 -46.88l0 54.92m-19.42 -8.04l38.83 -38.83m-46.88 19.42l54.92 0"/>
   <path class="fil1" d="M381.56 222.12c6.41,-1.2 7.6,5.52 7.17,11.14 -0.63,8.23 -5.95,13.35 -11.18,9.7 -1.34,-0.94 -1.46,-1.24 -2.41,-2.31 -1.55,-1.76 -1.61,-1.39 -1.46,-3.25l0.66 -8.58c0.18,-2.8 4.34,-6.16 7.21,-6.7zm-108.45 -18.02c15.51,0 28.09,12.57 28.09,28.07 0,7.75 -3.14,14.77 -8.23,19.85 -5.08,5.08 -12.1,8.22 -19.86,8.22 -15.51,0 -28.09,-12.57 -28.09,-28.07 0,-7.75 3.14,-14.77 8.23,-19.85 5.08,-5.08 12.11,-8.22 19.86,-8.22zm26.86 28.07c0,-14.83 -12.03,-26.85 -26.86,-26.85 -7.42,0 -14.14,3 -19,7.86 -4.86,4.86 -7.87,11.57 -7.87,18.98 0,14.83 12.03,26.85 26.86,26.85 7.42,0 14.14,-3 19,-7.86 4.86,-4.86 7.87,-11.57 7.87,-18.98zm75.22 -13.65c-0.19,-2.99 0.58,-8.7 0.81,-11.98 0.51,-7.45 1.76,-8.37 -3.52,-8.43 -6.66,-0.08 -5.57,0.8 -6.01,6.76l-3.31 44.5c-0.08,1.11 -0.06,1.63 0.88,1.98 1.15,0.42 4.88,0.4 6.04,0.02 1.71,-0.56 1.46,-2.88 1.53,-4.85 0.67,0.4 2.1,2.79 5.13,4.42 3.65,1.96 9.13,1.64 12.53,-0.22 1.33,-0.72 2.93,-1.79 3.66,-2.68 0.82,-1 1.87,-2.17 2.59,-3.56 4.61,-8.87 5.03,-23.76 -2.1,-28.63 -2.76,-1.89 -6.44,-2.59 -10.3,-1.77 -3.73,0.79 -5.83,2.82 -7.92,4.45zm-24.34 -19.03c-3.54,0.59 -4.52,2.41 -4.39,6.2 0.13,3.92 3.37,4.17 6.97,3.68 3.58,-0.48 4.38,-3.04 4.18,-6.36 -0.22,-3.66 -3.8,-4.01 -6.76,-3.52zm4.91 19.69c0.15,-2.08 0.92,-4 -1.26,-4.52 -1.62,-0.38 -4.24,-0.32 -5.92,-0.09 -2.58,0.35 -2.22,1.18 -2.4,3.63l-2.11 28.6c-0.24,3.25 -0.77,4.18 1.11,4.57 1.61,0.34 4.36,0.32 6,0.11 2.73,-0.36 2.24,-1.09 2.43,-3.65l2.15 -28.65zm-17.99 -17.8c0.17,-2.32 0.86,-3.3 -4.79,-3.28 -1.13,0 -2.8,0.06 -3.79,0.5 -1.2,0.53 -0.95,1.59 -1.05,2.98l-3.49 46.45c-0.14,1.74 -0.61,2.86 0.99,3.27 1.65,0.42 6.28,0.48 7.77,-0.19 1.02,-0.46 0.8,-1.81 0.91,-3.24l3.45 -46.49zm-26.63 13.25c0.65,-8.62 2.12,-9.33 -4.35,-9.25 -4.1,0.05 -4.63,0.39 -4.79,2.74 -0.14,2.03 -0.2,4.53 -0.52,6.5l-4.09 0.03c0.25,0.53 0.58,0.97 0.96,1.51 2.13,3.1 3.8,7.72 4.42,11.56 0.88,5.45 0.04,11.22 -1.82,15.89 -0.56,1.4 -1.22,1.84 -0.54,3.44 1.51,3.54 4.24,4.85 8.64,5.08 2.26,0.12 6.37,-0.16 7.64,-1.59 1.02,-1.14 1.31,-5.43 0.96,-6.59 -0.65,-2.15 -3.22,1.33 -6.66,-0.3 -1.89,-0.9 -1.67,-3.96 -1.48,-6.47 0.36,-4.86 0.76,-9.76 1.07,-14.63 1.91,-0.37 7.5,0.54 8.41,-0.59 1.18,-1.47 1.29,-5.74 0.21,-7.19 -1.51,-0.36 -6.21,-0.14 -8.05,-0.14zm-62.19 -11.61c0.28,-3.92 0.99,-4.78 -3.53,-4.91 -1.35,-0.04 -2.76,-0.04 -4.05,0.24 -1.65,0.35 -1.74,0.71 -1.86,2.41 -0.38,5.36 -0.8,10.71 -1.2,16.02 -0.81,10.72 -1.54,21.43 -2.42,32.15 -0.15,1.85 -0.03,2.25 1.83,2.52 1.3,0.19 2.91,0.2 4.23,0.13 4.28,-0.23 3.48,-1.09 3.78,-4.98 0.25,-3.26 -0.67,-3.95 -1.41,-6.87 -0.63,-2.45 -0.95,-5.04 -0.92,-7.67 0.11,-10.18 4.43,-13.36 4.68,-16.98l0.89 -12.07zm-37 19.2c6.31,-1.66 7.68,5.22 7.38,10.66 -0.28,5.01 -2.58,10.67 -7.26,11.15 -3.21,0.33 -4.88,-1.9 -6.26,-3.25 -2.28,-2.23 -1.56,-2.95 -1.24,-7.4 0.31,-4.27 -0.15,-5.44 1.74,-7.46 1.25,-1.34 3.08,-3.02 5.64,-3.69zm-7.87 -2.34c0.27,-4.55 1.26,-5.16 -2.65,-5.45 -4.71,-0.35 -5.17,0.54 -5.35,3.12 -0.35,5.18 -0.76,10.38 -1.15,15.55 -0.4,5.28 -0.78,10.46 -1.16,15.73 -0.26,3.5 -1.37,12.71 -0.97,15.62 1.91,0.86 4.17,0.99 6.56,0.76 3.31,-0.33 2.94,-1.01 3.16,-4.06 0.33,-4.49 0.67,-9.01 0.99,-13.51 2.1,1.74 3.92,4.07 8.13,4.53 7.1,0.78 12.76,-3.25 15.42,-9.59 3.24,-7.73 4.72,-23.37 -4.87,-27.81 -6.07,-2.81 -12.84,0.27 -17.31,4.4l-0.81 0.71zm-23.68 -5.25c-0.21,-6.15 1.98,-8.44 -1.18,-9.01 -1.02,-0.18 -2.32,-0.25 -3.36,-0.23 -4.3,0.09 -4.49,0.56 -4.63,2.53 -0.14,2.09 -0.21,4.7 -0.53,6.69 -4.51,0.18 -4.86,-0.3 -5.44,1.35 -0.2,0.56 -0.24,0.94 -0.31,1.56 -0.31,2.82 -0.55,4.88 1.68,4.94 1.13,0.03 2.35,-0.01 3.5,-0.01 -0.27,4.56 -0.66,9.15 -1,13.7 -0.31,4.18 -0.95,9.15 1.27,12.42 2.63,3.88 9.56,4.39 14.1,2.78 3.14,-1.11 2.39,-5.28 2.2,-8.01 -3.02,-0.44 -8.84,4.48 -8.04,-6.22 0.37,-4.88 0.78,-9.79 1.06,-14.66 1.7,0 7.51,0.45 8.35,-0.46 0.97,-1.04 1.5,-6.5 0.31,-7.21 -1.2,-0.36 -6.32,-0.15 -7.99,-0.15zm-31.25 20.92c-0.28,5.75 0.28,5.9 -3.13,8.23 -5.02,3.43 -10.72,1.37 -9.42,-3.89 1.22,-4.92 8.26,-4.33 12.55,-4.33zm-18.78 -13.91c0,4.74 3.1,2.2 5.38,1.24 2.86,-1.2 11.14,-3.72 13.34,0.35 0.84,1.55 0.88,4.44 0.44,6.27 -6.16,0.35 -10.21,-0.25 -15.73,2.07 -4.03,1.7 -6.85,5.19 -6.85,10.74 0,10.97 13.61,12.01 20.2,7.32 0.68,-0.48 2.21,-1.81 2.58,-1.94l-0.07 3.28c1.84,1.15 5.76,0.72 7.64,0.04 0.53,-1.91 1.97,-23.2 1.97,-26.49 0,-12.51 -15.06,-12.01 -23.48,-9.16 -3.73,1.27 -5.42,2.15 -5.42,6.29zm-55.34 -1.87c0.05,-3.79 1.59,-5.34 -3.12,-5.34 -1.9,0 -4.6,-0.26 -4.88,1.7l-1.11 14.92c-0.23,3.27 -0.48,6.56 -0.73,9.83 -0.19,2.46 -0.85,7.63 -0.6,9.81 0.52,1.03 4.15,0.92 5.47,0.92 3.98,0 4.07,-0.78 4.2,-2.69l1.4 -18.88c0.28,-3.8 0.13,-2.51 2.1,-4.6 5.32,-5.64 10.67,-3.75 10.67,3.15 0,4.33 -0.61,9.17 -0.94,13.51 -0.17,2.26 -0.31,4.44 -0.5,6.71 -0.16,1.96 -0.28,2.8 3.95,2.8 6.46,0 5.49,-0.37 5.87,-5.42 0.33,-4.28 0.89,-14.88 1.35,-18.2 0.31,-2.27 8.43,-9.29 11.67,-3.76 1.37,2.34 0.96,5.63 0.75,8.45 -0.19,2.56 -1.52,16.94 -1.12,18.09 0.7,0.71 2.47,0.83 3.78,0.83 5.93,0 5.56,-0.42 5.78,-3.55 0.16,-2.32 0.35,-4.67 0.52,-6.99 0.43,-5.7 1.01,-9.73 1.01,-15.54 0,-11.5 -10,-13.95 -17.53,-10.02 -3.66,1.91 -4.89,3.93 -5.78,4.41 -0.64,-0.97 -0.81,-1.67 -1.58,-2.59 -2.23,-2.67 -5.64,-3.77 -9.43,-3.52 -6.21,0.41 -9.27,4.79 -11.18,5.96z"/>
   <path class="fil2 str1" d="M273.1 232.18c-0.04,-0.05 -17.72,-8.2 -19.1,-8.86 -1.74,3 -2.4,7.62 -1.82,12.48l20.92 -3.62z"/>
   <path class="fil3 str1" d="M284.05 217.97c-0.83,-0.84 -2.8,-2.08 -4.35,-2.53l-6.59 16.74 10.94 -14.21z"/>
   <path class="fil4 str1" d="M269.9 247.01c1.77,0.29 3.73,0.43 5.46,0.15 -0.64,-4.94 -1.53,-10.04 -2.26,-14.98l-3.21 14.83z"/>
   <path class="fil5 str1" d="M263.06 238.74c2.18,-1.32 8.88,-5.4 10.05,-6.57l-10.73 5.35c0.24,0.62 0.3,0.78 0.68,1.22z"/>
   <path class="fil6 str1" d="M273.1 232.18l5.86 -0.11c-0.03,-0.49 -0.09,-1.03 -0.21,-1.46l-5.66 1.56z"/>
   <path class="fil7 str2" d="M273.1 232.18l-5.6 -23.49c-3.51,0.49 -7.83,3.11 -9.75,4.81l15.34 18.68 15.27 18.76c0.75,-0.46 3.25,-2.93 3.48,-3.71 -6,-4.74 -13.35,-9.87 -18.75,-15.05z"/>
  </g>
 </g>
</svg>
