<?xml version="1.0" encoding="UTF-8"?>
<!DOCTYPE svg PUBLIC "-//W3C//DTD SVG 1.1//EN" "http://www.w3.org/Graphics/SVG/1.1/DTD/svg11.dtd">
<!-- Creator: CorelDRAW 2019 (64-Bit) -->
<svg xmlns="http://www.w3.org/2000/svg" xml:space="preserve" width="1.9685in" height="1.9685in" version="1.1" style="shape-rendering:geometricPrecision; text-rendering:geometricPrecision; image-rendering:optimizeQuality; fill-rule:evenodd; clip-rule:evenodd"
viewBox="0 0 542.31 542.31"
 xmlns:xlink="http://www.w3.org/1999/xlink"
 xmlns:xodm="http://www.corel.com/coreldraw/odm/2003">
 <defs>
  <style type="text/css">
   <![CDATA[
    .fil0 {fill:none}
    .fil1 {fill:#4D76CF}
    .fil2 {fill:#4DABCF}
   ]]>
  </style>
 </defs>
 <g id="Layer_x0020_1">
  <metadata id="CorelCorpID_0Corel-Layer"/>
  <rect class="fil0" width="542.31" height="542.31"/>
  <g id="_2468246941888">
   <path class="fil1" d="M154.29 278.34c2.92,1.96 7.82,4.16 10.97,5.93 1.43,0.8 2.05,1.25 3.62,2.02 2.86,1.41 13.09,7.47 15.31,7.66l0 -64.58 23.69 45.22c2.34,4.71 17.28,33.94 20.2,37.88 1.81,2.44 3.41,4.23 5.97,5.73 4.8,2.83 9.35,5.85 14.2,8.77 2.5,1.5 12.91,8.14 14.82,8.59l0 -128.29c-2.77,-1.47 -30.76,-16.25 -33.37,-16.47l0 70.21c-1.15,-1.33 -1.14,-2.16 -1.88,-3.76l-27.74 -58.95c-1.96,-4.22 -13.57,-29.46 -15.18,-30.76l-22.81 -11.86c-2.14,-1.07 -6.3,-3.55 -7.8,-3.9l0 126.56z"/>
   <path class="fil1" d="M103.15 433.93l15.6 0 0 -46.38c1.81,1.21 21.26,26.5 24.13,30.04 1.71,2.11 3.17,3.88 4.78,6.06 9.05,12.21 7.41,10.28 21.36,10.28l0 -74.98 -15.6 0 0 46.38c-1.23,-0.83 -8.08,-9.74 -9.6,-11.64l-18.71 -23.76c-10.54,-12.94 -5.62,-10.97 -21.97,-10.97l0 74.98z"/>
   <path class="fil1" d="M250.95 385.39c-0.54,-6.54 -5.42,-5.2 -13.44,-5.2 -1,0 -1.3,0.3 -1.3,1.3l0 52.44 16.47 0 0 -38.14c0,-1.35 4.15,-3.9 6.94,-3.9 2.14,0 4.44,0.18 5.89,1.91 0.75,0.89 1.48,3.05 1.48,4.59l0 35.54 16.47 0 0 -35.11c0,-8.52 13.46,-9.77 13.89,-0.89l-0.02 30.79c-0.04,6.61 -2.62,5.2 16.47,5.2l0 -35.97c0,-4.38 -1.84,-9.31 -3.83,-11.78 -6.89,-8.58 -20.04,-8.52 -27.94,-2.66 -1.51,1.12 -3.26,2.56 -3.77,4.46l-0.87 0c-0.51,-2.19 -2.66,-4.37 -4.22,-5.75 -4.23,-3.74 -10.9,-3.29 -15.98,-1.01 -1.35,0.61 -2.1,1.25 -3.15,2.05 -1.07,0.82 -1.73,1.75 -3.09,2.11z"/>
   <polygon class="fil2" points="279.98,280.94 279.98,336.41 328.88,311.97 328.96,256.67 "/>
   <path class="fil2" d="M279.98 206.82l0 55.04 48.98 -24.27 -0 -54.61 -18.49 8.81c-2.19,1.1 -3.87,1.94 -6.07,3.03 -3.53,1.76 -22.39,11.52 -24.42,11.99z"/>
   <path class="fil1" d="M351.07 395.36l-10.4 0 0 -23.4c8.73,0 21.24,-1.15 21.24,11.27 0,7.26 -3.59,12.14 -10.84,12.14zm-28.17 38.57l16.47 0c1,0 1.3,-0.3 1.3,-1.3l0 -23.84c13.51,0 29.69,1.06 36.7,-14.01 3,-6.44 3.01,-15.51 0.14,-21.97 -3.79,-8.53 -14.11,-13.87 -24.27,-13.87l-30.34 0 0 74.98z"/>
   <path class="fil2" d="M345.43 249.3l0 52.88c0,2.56 6.29,-1.63 9.97,-3.47 1.73,-0.87 3.47,-1.73 5.2,-2.6 9.01,-4.52 17.74,-8.38 27.31,-13.44l0 -55.48c-1.92,0.45 -18.29,8.93 -21.53,10.55l-16.18 8.09c-1.34,0.67 -4.77,1.82 -4.77,3.47z"/>
   <path class="fil2" d="M345.43 175.62l0 52.44c0,2.26 1.9,0.57 4.77,-0.87l10.83 -5.64c1.86,-0.92 3.51,-1.75 5.49,-2.74l19.23 -9.81c0.94,-0.48 2.15,-0.82 2.15,-2.18l0 -52.01c0,-1.68 -0.84,-1.14 -1.85,-0.65 -1.12,0.54 -1.92,1.02 -2.91,1.52l-32.94 16.47c-1.34,0.67 -4.77,1.82 -4.77,3.47z"/>
   <path class="fil2" d="M227.98 170.42c0.97,1.33 3.24,2.05 4.91,2.89l38 18.78c1.35,0 4.34,-1.96 5.63,-2.6 4.39,-2.18 38.67,-18.72 39.87,-20.37l-21.67 -10.84c-2.47,-1.23 -21.06,-10.84 -22.1,-10.84 -1.56,0 -23.11,12.01 -27.74,14.31 -1.89,0.94 -3.84,1.81 -5.78,2.89l-11.13 5.77z"/>
   <path class="fil2" d="M166.43 140.08c2.29,0.53 8.57,4.07 11.12,5.35l27.45 13.72c5.75,2.88 1.91,3.06 16.19,-4.18l21.54 -11.4c2.67,-1.55 9.29,-4.01 10.82,-6.09l-41.61 -20.8c-1.2,0 -35.75,17.83 -43.21,21.37 -1.61,0.76 -1.88,0.48 -2.3,2.04z"/>
   <path class="fil1" d="M177.7 381.49l0 32.94c0,18.22 15.71,24.01 27.46,18.36 4.96,-2.38 4,-2.91 6.35,-4.49 1.59,6.83 2.69,5.63 13.87,5.63 1,0 1.3,-0.3 1.3,-1.3l0 -51.14c0,-1 -0.3,-1.3 -1.3,-1.3 -16.56,0 -15.27,-1.15 -15.19,3.44l0.02 35.13c-3.52,0.94 -2,3.47 -9.97,3.47 -3.83,0 -5.67,-2.72 -6.02,-6.11l-0.04 -30.73c0.04,-6.55 2.46,-5.2 -15.17,-5.2 -1,0 -1.3,0.3 -1.3,1.3z"/>
   <path class="fil2" d="M291.69 137.91c2.27,0.53 16.89,8.44 21.09,10.55 7.18,3.59 14,6.86 21.1,10.58 2.79,1.46 4.32,-0.39 10.25,-3.35l26.43 -13.44c1.61,-0.84 4.19,-1.63 5.21,-3.03 -2.29,-0.53 -8.57,-4.07 -11.12,-5.34 -2.87,-1.43 -32.36,-16.76 -33.95,-16.76 -0.76,0 -17.3,9.09 -19.65,10.26l-14.45 7.65c-1.72,0.96 -3.84,1.44 -4.91,2.89z"/>
   <path class="fil1" d="M403.07 428.73c0,2.16 -9.42,19.76 -9.97,22.1 12.47,0 15.14,1.73 17.66,-4.01l23.77 -55.98c0.83,-1.98 1.37,-3.19 2.16,-5.2 0.77,-1.93 1.74,-3.3 1.92,-5.45 -16.8,0 -15.62,-1.96 -19.56,9.91l-6.61 18.96c-0.14,0.4 -0.27,0.89 -0.43,1.31l-0.71 1.46c-0.87,-3.74 -8.01,-22.51 -10.08,-27.63 -2.42,-5.95 -7.36,-4.01 -18.96,-4.01 0.14,1.71 4.1,10.23 5.06,12.28 1,2.13 1.59,3.96 2.6,6.07 1.02,2.13 1.67,3.85 2.62,6.05l5.33 12.01c0.54,1.11 5.2,11.73 5.2,12.14z"/>
   <path class="fil2" d="M231.44 106.7l0 0.87c2.73,0.64 20.84,10.34 25.13,12.58l10.41 5.2c1.19,0.59 4.14,2.28 5.18,2.62 1.9,0.62 8,-3.57 9.85,-4.49l19.79 -10.55c1.65,-0.84 9.01,-4.68 9.82,-5.79 -3.8,-2.01 -39.26,-19.94 -40.31,-19.94 -1.01,0 -17.41,8.49 -19.79,9.68 -3.44,1.72 -6.38,3.19 -9.82,4.91 -2.41,1.21 -8.06,4.4 -10.26,4.91z"/>
  </g>
 </g>
</svg>
