<?xml version="1.0" encoding="UTF-8"?>
<!DOCTYPE svg PUBLIC "-//W3C//DTD SVG 1.1//EN" "http://www.w3.org/Graphics/SVG/1.1/DTD/svg11.dtd">
<!-- Creator: CorelDRAW 2019 (64-Bit) -->
<svg xmlns="http://www.w3.org/2000/svg" xml:space="preserve" width="5mm" height="5mm" version="1.1" style="shape-rendering:geometricPrecision; text-rendering:geometricPrecision; image-rendering:optimizeQuality; fill-rule:evenodd; clip-rule:evenodd"
viewBox="0 0 137.75 137.75"
 xmlns:xlink="http://www.w3.org/1999/xlink"
 xmlns:xodm="http://www.corel.com/coreldraw/odm/2003">
 <defs>
  <style type="text/css">
   <![CDATA[
    .fil0 {fill:none}
    .fil1 {fill:#4D76CF}
    .fil2 {fill:#4DABCF}
   ]]>
  </style>
 </defs>
 <g id="Layer_x0020_1">
  <metadata id="CorelCorpID_0Corel-Layer"/>
  <rect class="fil0" width="137.75" height="137.75"/>
  <g id="_2467960663792">
   <path class="fil1" d="M39.19 70.7c0.74,0.5 1.99,1.06 2.79,1.51 0.36,0.2 0.52,0.32 0.92,0.51 0.73,0.36 3.32,1.9 3.89,1.94l0 -16.4 6.02 11.49c0.59,1.2 4.39,8.62 5.13,9.62 0.46,0.62 0.87,1.07 1.52,1.46 1.22,0.72 2.38,1.48 3.61,2.23 0.63,0.38 3.28,2.07 3.76,2.18l0 -32.59c-0.7,-0.37 -7.81,-4.13 -8.48,-4.18l0 17.83c-0.29,-0.34 -0.29,-0.55 -0.48,-0.95l-7.05 -14.97c-0.5,-1.07 -3.45,-7.48 -3.86,-7.81l-5.79 -3.01c-0.54,-0.27 -1.6,-0.9 -1.98,-0.99l0 32.15z"/>
   <path class="fil1" d="M26.2 110.22l3.96 0 0 -11.78c0.46,0.31 5.4,6.73 6.13,7.63 0.43,0.54 0.8,0.99 1.21,1.54 2.3,3.1 1.88,2.61 5.43,2.61l0 -19.05 -3.96 0 0 11.78c-0.31,-0.21 -2.05,-2.47 -2.44,-2.96l-4.75 -6.04c-2.68,-3.29 -1.43,-2.79 -5.58,-2.79l0 19.05z"/>
   <path class="fil1" d="M63.74 97.89c-0.14,-1.66 -1.38,-1.32 -3.41,-1.32 -0.25,0 -0.33,0.08 -0.33,0.33l0 13.32 4.18 0 0 -9.69c0,-0.34 1.06,-0.99 1.76,-0.99 0.54,0 1.13,0.04 1.5,0.49 0.19,0.23 0.37,0.77 0.37,1.17l0 9.03 4.18 0 0 -8.92c0,-2.16 3.42,-2.48 3.53,-0.23l-0.01 7.82c-0.01,1.68 -0.67,1.32 4.18,1.32l0 -9.14c0,-1.11 -0.47,-2.36 -0.97,-2.99 -1.75,-2.18 -5.09,-2.16 -7.1,-0.67 -0.38,0.28 -0.83,0.65 -0.96,1.13l-0.22 0c-0.13,-0.56 -0.68,-1.11 -1.07,-1.46 -1.07,-0.95 -2.77,-0.84 -4.06,-0.26 -0.34,0.15 -0.53,0.32 -0.8,0.52 -0.27,0.21 -0.44,0.44 -0.79,0.54z"/>
   <polygon class="fil2" points="71.12,71.36 71.12,85.45 83.53,79.24 83.56,65.19 "/>
   <path class="fil2" d="M71.12 52.53l0 13.98 12.44 -6.16 -0 -13.87 -4.7 2.24c-0.56,0.28 -0.98,0.49 -1.54,0.77 -0.9,0.45 -5.69,2.93 -6.2,3.05z"/>
   <path class="fil1" d="M89.17 100.42l-2.64 0 0 -5.94c2.22,0 5.39,-0.29 5.39,2.86 0,1.84 -0.91,3.08 -2.75,3.08zm-7.16 9.8l4.18 0c0.25,0 0.33,-0.08 0.33,-0.33l0 -6.05c3.43,0 7.54,0.27 9.32,-3.56 0.76,-1.64 0.77,-3.94 0.04,-5.58 -0.96,-2.17 -3.58,-3.52 -6.17,-3.52l-7.71 0 0 19.05z"/>
   <path class="fil2" d="M87.74 63.32l0 13.43c0,0.65 1.6,-0.41 2.53,-0.88 0.44,-0.22 0.88,-0.44 1.32,-0.66 2.29,-1.15 4.51,-2.13 6.94,-3.41l0 -14.09c-0.49,0.11 -4.64,2.27 -5.47,2.68l-4.11 2.06c-0.34,0.17 -1.21,0.46 -1.21,0.88z"/>
   <path class="fil2" d="M87.74 44.61l0 13.32c0,0.57 0.48,0.14 1.21,-0.22l2.75 -1.43c0.47,-0.23 0.89,-0.44 1.4,-0.7l4.88 -2.49c0.24,-0.12 0.55,-0.21 0.55,-0.55l0 -13.21c0,-0.43 -0.21,-0.29 -0.47,-0.17 -0.28,0.14 -0.49,0.26 -0.74,0.39l-8.37 4.18c-0.34,0.17 -1.21,0.46 -1.21,0.88z"/>
   <path class="fil2" d="M57.91 43.29c0.25,0.34 0.82,0.52 1.25,0.73l9.65 4.77c0.34,0 1.1,-0.5 1.43,-0.66 1.11,-0.55 9.82,-4.76 10.13,-5.17l-5.5 -2.75c-0.63,-0.31 -5.35,-2.75 -5.61,-2.75 -0.4,0 -5.87,3.05 -7.04,3.63 -0.48,0.24 -0.98,0.46 -1.47,0.73l-2.83 1.47z"/>
   <path class="fil2" d="M42.27 35.58c0.58,0.14 2.18,1.03 2.83,1.36l6.97 3.49c1.46,0.73 0.49,0.78 4.11,-1.06l5.47 -2.9c0.68,-0.39 2.36,-1.02 2.75,-1.55l-10.57 -5.28c-0.31,0 -9.08,4.53 -10.98,5.43 -0.41,0.19 -0.48,0.12 -0.58,0.52z"/>
   <path class="fil1" d="M45.14 96.9l0 8.37c0,4.63 3.99,6.1 6.97,4.66 1.26,-0.61 1.01,-0.74 1.61,-1.14 0.4,1.74 0.68,1.43 3.52,1.43 0.25,0 0.33,-0.08 0.33,-0.33l0 -12.99c0,-0.25 -0.08,-0.33 -0.33,-0.33 -4.21,0 -3.88,-0.29 -3.86,0.87l0.01 8.92c-0.89,0.24 -0.51,0.88 -2.53,0.88 -0.97,0 -1.44,-0.69 -1.53,-1.55l-0.01 -7.8c0.01,-1.66 0.62,-1.32 -3.85,-1.32 -0.25,0 -0.33,0.08 -0.33,0.33z"/>
   <path class="fil2" d="M74.09 35.03c0.58,0.13 4.29,2.14 5.36,2.68 1.82,0.91 3.56,1.74 5.36,2.69 0.71,0.37 1.1,-0.1 2.6,-0.85l6.71 -3.41c0.41,-0.21 1.06,-0.42 1.32,-0.77 -0.58,-0.14 -2.18,-1.03 -2.83,-1.36 -0.73,-0.36 -8.22,-4.26 -8.62,-4.26 -0.19,0 -4.39,2.31 -4.99,2.61l-3.67 1.94c-0.44,0.24 -0.98,0.37 -1.25,0.74z"/>
   <path class="fil1" d="M102.38 108.9c0,0.55 -2.39,5.02 -2.53,5.61 3.17,0 3.85,0.44 4.48,-1.02l6.04 -14.22c0.21,-0.5 0.35,-0.81 0.55,-1.32 0.2,-0.49 0.44,-0.84 0.49,-1.38 -4.27,0 -3.97,-0.5 -4.97,2.52l-1.68 4.82c-0.03,0.1 -0.07,0.23 -0.11,0.33l-0.18 0.37c-0.22,-0.95 -2.03,-5.72 -2.56,-7.02 -0.61,-1.51 -1.87,-1.02 -4.82,-1.02 0.04,0.44 1.04,2.6 1.28,3.12 0.25,0.54 0.4,1.01 0.66,1.54 0.26,0.54 0.42,0.98 0.67,1.54l1.35 3.05c0.14,0.28 1.32,2.98 1.32,3.08z"/>
   <path class="fil2" d="M58.79 27.1l0 0.22c0.69,0.16 5.29,2.63 6.38,3.19l2.64 1.32c0.3,0.15 1.05,0.58 1.32,0.67 0.48,0.16 2.03,-0.91 2.5,-1.14l5.03 -2.68c0.42,-0.21 2.29,-1.19 2.49,-1.47 -0.96,-0.51 -9.97,-5.06 -10.24,-5.06 -0.26,0 -4.42,2.16 -5.03,2.46 -0.87,0.44 -1.62,0.81 -2.5,1.25 -0.61,0.31 -2.05,1.12 -2.61,1.25z"/>
  </g>
 </g>
</svg>
