<?xml version="1.0" encoding="UTF-8"?>
<!DOCTYPE svg PUBLIC "-//W3C//DTD SVG 1.1//EN" "http://www.w3.org/Graphics/SVG/1.1/DTD/svg11.dtd">
<!-- Creator: CorelDRAW 2019 (64-Bit) -->
<svg xmlns="http://www.w3.org/2000/svg" xml:space="preserve" width="5mm" height="5mm" version="1.1" style="shape-rendering:geometricPrecision; text-rendering:geometricPrecision; image-rendering:optimizeQuality; fill-rule:evenodd; clip-rule:evenodd"
viewBox="0 0 339.67 339.67"
 xmlns:xlink="http://www.w3.org/1999/xlink"
 xmlns:xodm="http://www.corel.com/coreldraw/odm/2003"
 data-name="Layer 1">
 <defs>
  <style type="text/css">
   <![CDATA[
    .fil0 {fill:none}
    .fil1 {fill:#130754;fill-rule:nonzero}
    .fil3 {fill:#E70488;fill-rule:nonzero}
    .fil2 {fill:#FFCA00;fill-rule:nonzero}
   ]]>
  </style>
 </defs>
 <g id="Layer_x0020_1">
  <metadata id="CorelCorpID_0Corel-Layer"/>
  <rect class="fil0" width="339.67" height="339.67"/>
  <g id="Pandas_logo.svg">
   <path class="fil1" d="M129.92 185.23c-3.46,0 -6.98,-1.43 -9.19,-4.24l0 15.16 -6.93 0 0 -37.43 6.27 0 0.24 4.12c2.15,-3.16 5.97,-4.84 9.61,-4.84 6.98,0 12.13,5.85 12.13,13.61 0,7.76 -5.14,13.62 -12.12,13.61zm-2.15 -22.09c-4.06,0 -7.34,3.16 -7.34,8.48 0,5.31 3.28,8.48 7.34,8.48 4.06,0 7.34,-3.16 7.34,-8.48 0,-5.31 -3.28,-8.48 -7.34,-8.48z"/>
   <path class="fil1" d="M168.17 184.52l-0.24 -4.12c-2.15,3.16 -5.97,4.84 -9.61,4.83 -6.98,0 -12.13,-5.85 -12.13,-13.61 0,-7.76 5.14,-13.61 12.13,-13.61 3.64,0 7.46,1.68 9.61,4.83l0.24 -4.12 6.28 0 0 25.79 -6.28 0zm-7.7 -21.37c-4.06,0 -7.34,3.16 -7.35,8.48 -0,5.31 3.28,8.48 7.34,8.48 4.06,0 7.35,-3.16 7.35,-8.48 0,-5.31 -3.28,-8.48 -7.34,-8.48z"/>
   <path class="fil1" d="M198.67 184.53l0 -14.27c0,-5.01 -1.73,-6.69 -4.89,-6.69 -3.29,0 -6.87,2.98 -6.87,6.56l0 14.39 -6.93 0 0 -25.79 6.33 0 0.3 4.78c1.73,-3.29 5.61,-5.49 9.55,-5.49 6.86,0 9.43,4.78 9.43,11.16l0 15.34 -6.93 -0z"/>
   <path class="fil1" d="M230.98 184.53l-0.24 -4.12c-2.15,3.16 -5.97,4.84 -9.61,4.84 -6.98,0 -12.13,-5.85 -12.13,-13.61 0,-7.76 5.14,-13.61 12.13,-13.61 3.46,0 6.98,1.44 9.19,4.24l0 -13.55 6.93 0 0 35.82 -6.27 0zm-7.7 -21.37c-4.04,0 -7.34,3.16 -7.34,8.47 0,5.31 3.28,8.47 7.34,8.47 4.06,0 7.34,-3.16 7.34,-8.47 0,-5.31 -3.27,-8.47 -7.34,-8.47z"/>
   <path class="fil1" d="M263.27 184.54l-0.24 -4.12c-2.15,3.16 -5.97,4.83 -9.61,4.83 -6.98,0 -12.13,-5.85 -12.13,-13.61 0,-7.76 5.14,-13.61 12.13,-13.61 3.64,0 7.46,1.68 9.61,4.84l0.24 -4.12 6.27 0 0 25.79 -6.27 0zm-7.7 -21.37c-4.04,0 -7.34,3.16 -7.35,8.48 -0,5.31 3.29,8.47 7.34,8.47 4.06,0 7.35,-3.16 7.35,-8.48 0,-5.31 -3.28,-8.47 -7.34,-8.47z"/>
   <path class="fil1" d="M284.88 185.38c-3.64,-0.03 -7.21,-1.04 -10.33,-2.93l1.14 -4.77c2.09,1.25 5.25,2.87 9.07,2.87 2.75,0 4.66,-0.84 4.66,-2.99 0,-1.85 -1.97,-2.51 -5.49,-3.34 -6.33,-1.37 -8.6,-4.72 -8.6,-8.36 0,-4.06 3.16,-7.88 10.15,-7.88 4.24,0 7.94,1.85 8.76,2.33l-1.14 4.54c-2.25,-1.36 -4.83,-2.1 -7.46,-2.15 -2.8,0 -4.18,0.95 -4.18,2.51 0,1.73 1.79,2.51 4.54,3.16 6.81,1.43 9.55,4.6 9.55,8.06 0.01,5.55 -4.05,8.95 -10.68,8.95z"/>
   <rect class="fil1" x="57.15" y="141.16" width="8.12" height="16.85"/>
   <rect class="fil1" x="57.15" y="175.79" width="8.12" height="16.85"/>
   <rect class="fil2" x="57.15" y="162.94" width="8.12" height="7.95"/>
   <rect class="fil1" x="44.11" y="155.02" width="8.12" height="56.02"/>
   <rect class="fil1" x="69.92" y="189.69" width="8.12" height="16.85"/>
   <rect class="fil1" x="69.92" y="155.04" width="8.12" height="16.85"/>
   <rect class="fil3" x="69.92" y="176.82" width="8.12" height="7.95"/>
   <rect class="fil1" x="82.69" y="136.77" width="8.12" height="56.02"/>
  </g>
 </g>
</svg>
