<?xml version="1.0" encoding="UTF-8"?>
<!DOCTYPE svg PUBLIC "-//W3C//DTD SVG 1.1//EN" "http://www.w3.org/Graphics/SVG/1.1/DTD/svg11.dtd">
<!-- Creator: CorelDRAW 2019 (64-Bit) -->
<svg xmlns="http://www.w3.org/2000/svg" xml:space="preserve" width="1.9685in" height="1.9685in" version="1.1" style="shape-rendering:geometricPrecision; text-rendering:geometricPrecision; image-rendering:optimizeQuality; fill-rule:evenodd; clip-rule:evenodd"
viewBox="0 0 1337.28 1337.28"
 xmlns:xlink="http://www.w3.org/1999/xlink"
 xmlns:xodm="http://www.corel.com/coreldraw/odm/2003"
 data-name="Layer 1">
 <defs>
  <style type="text/css">
   <![CDATA[
    .fil0 {fill:none}
    .fil1 {fill:#130754;fill-rule:nonzero}
    .fil3 {fill:#E70488;fill-rule:nonzero}
    .fil2 {fill:#FFCA00;fill-rule:nonzero}
   ]]>
  </style>
 </defs>
 <g id="Layer_x0020_1">
  <metadata id="CorelCorpID_0Corel-Layer"/>
  <rect class="fil0" width="1337.28" height="1337.28"/>
  <g id="Pandas_logo.svg">
   <path class="fil1" d="M511.5 729.27c-13.62,0 -27.5,-5.64 -36.19,-16.69l0 59.7 -27.29 0 0 -147.37 24.67 0 0.94 16.21c8.46,-12.46 23.49,-19.04 37.83,-19.04 27.5,0 47.76,23.04 47.76,53.59 0,30.55 -20.23,53.61 -47.73,53.6zm-8.45 -86.96c-15.99,0 -28.91,12.46 -28.91,33.38 0,20.92 12.92,33.41 28.91,33.41 15.98,0 28.9,-12.46 28.9,-33.38 0,-20.92 -12.92,-33.4 -28.9,-33.4z"/>
   <path class="fil1" d="M662.09 726.47l-0.94 -16.21c-8.46,12.46 -23.51,19.04 -37.85,19.02 -27.5,0 -47.76,-23.03 -47.76,-53.58 0,-30.55 20.22,-53.59 47.76,-53.58 14.34,0 29.38,6.63 37.85,19.03l0.94 -16.21 24.73 0 0 101.52 -24.73 0zm-30.31 -84.14c-15.98,0 -28.9,12.46 -28.92,33.38 -0.01,20.92 12.92,33.39 28.91,33.39 15.98,0 28.92,-12.46 28.92,-33.38 0,-20.92 -12.92,-33.39 -28.91,-33.39z"/>
   <path class="fil1" d="M782.15 726.48l0 -56.17c0,-19.74 -6.81,-26.32 -19.26,-26.32 -12.93,0 -27.03,11.74 -27.03,25.84l0 56.64 -27.28 0 0 -101.54 24.93 0 1.18 18.81c6.82,-12.93 22.09,-21.62 37.61,-21.62 27.02,0 37.14,18.81 37.14,43.95l0 60.41 -27.29 -0.01z"/>
   <path class="fil1" d="M909.37 726.51l-0.94 -16.22c-8.46,12.46 -23.51,19.04 -37.83,19.04 -27.5,0 -47.76,-23.04 -47.76,-53.6 0,-30.55 20.22,-53.58 47.76,-53.58 13.62,0 27.49,5.65 36.19,16.69l0 -53.34 27.28 0 0 141.02 -24.69 0zm-30.31 -84.14c-15.92,0 -28.91,12.46 -28.91,33.36 0,20.91 12.92,33.37 28.91,33.37 15.98,0 28.9,-12.44 28.9,-33.37 0,-20.92 -12.88,-33.36 -28.9,-33.36z"/>
   <path class="fil1" d="M1036.5 726.52l-0.94 -16.21c-8.46,12.46 -23.51,19.02 -37.85,19.02 -27.5,0 -47.76,-23.03 -47.76,-53.59 0,-30.56 20.22,-53.58 47.76,-53.58 14.34,0 29.38,6.63 37.85,19.05l0.94 -16.22 24.67 0 0 101.52 -24.67 0.01zm-30.31 -84.14c-15.92,0 -28.9,12.46 -28.92,33.38 -0.02,20.92 12.93,33.34 28.9,33.34 15.97,0 28.92,-12.46 28.92,-33.38 0,-20.92 -12.92,-33.34 -28.91,-33.34z"/>
   <path class="fil1" d="M1121.57 729.83c-14.34,-0.12 -28.39,-4.1 -40.66,-11.52l4.47 -18.8c8.22,4.93 20.68,11.29 35.72,11.29 10.81,0 18.33,-3.29 18.33,-11.75 0,-7.28 -7.76,-9.87 -21.62,-13.16 -24.91,-5.41 -33.84,-18.57 -33.84,-32.91 0,-15.99 12.46,-31.01 39.96,-31.01 16.69,0 31.27,7.28 34.49,9.17l-4.47 17.87c-8.87,-5.35 -19.01,-8.27 -29.37,-8.46 -11.04,0 -16.45,3.75 -16.45,9.87 0,6.81 7.06,9.87 17.86,12.46 26.8,5.64 37.61,18.1 37.61,31.73 0.05,21.84 -15.94,35.24 -42.03,35.24z"/>
   <rect class="fil1" x="225" y="555.77" width="31.96" height="66.36"/>
   <rect class="fil1" x="225" y="692.07" width="31.96" height="66.36"/>
   <rect class="fil2" x="225" y="641.49" width="31.96" height="31.31"/>
   <rect class="fil1" x="173.68" y="610.33" width="31.96" height="220.57"/>
   <rect class="fil1" x="275.28" y="746.82" width="31.96" height="66.36"/>
   <rect class="fil1" x="275.28" y="610.41" width="31.96" height="66.36"/>
   <rect class="fil3" x="275.28" y="696.13" width="31.96" height="31.31"/>
   <rect class="fil1" x="325.54" y="538.48" width="31.96" height="220.57"/>
  </g>
 </g>
</svg>
