<?xml version="1.0" encoding="UTF-8"?>
<!DOCTYPE svg PUBLIC "-//W3C//DTD SVG 1.1//EN" "http://www.w3.org/Graphics/SVG/1.1/DTD/svg11.dtd">
<!-- Creator: CorelDRAW 2019 (64-Bit) -->
<svg xmlns="http://www.w3.org/2000/svg" xml:space="preserve" width="5mm" height="5mm" version="1.1" style="shape-rendering:geometricPrecision; text-rendering:geometricPrecision; image-rendering:optimizeQuality; fill-rule:evenodd; clip-rule:evenodd"
viewBox="0 0 463.42 463.42"
 xmlns:xlink="http://www.w3.org/1999/xlink"
 xmlns:xodm="http://www.corel.com/coreldraw/odm/2003">
 <defs>
  <style type="text/css">
   <![CDATA[
    .fil4 {fill:none}
    .fil0 {fill:#3B3939;fill-rule:nonzero}
    .fil1 {fill:#3E9AE0;fill-rule:nonzero}
    .fil2 {fill:#FFE63E;fill-rule:nonzero}
    .fil3 {fill:url(#id2);fill-rule:nonzero}
   ]]>
  </style>
     <mask id="id0">
  <radialGradient id="id1" gradientUnits="userSpaceOnUse" cx="170.18" cy="263.54" r="0" fx="170.18" fy="263.54">
   <stop offset="0" style="stop-opacity:0.498039; stop-color:white"/>
   <stop offset="1" style="stop-opacity:0; stop-color:white"/>
  </radialGradient>
      <rect style="fill:url(#id1)" x="170.18" y="263.54" width="116.62" height="22.67"/>
     </mask>
  <radialGradient id="id2" gradientUnits="userSpaceOnUse" gradientTransform="matrix(1.42165E-17 -0.232174 -1.02078 -6.25046E-17 507 326)" cx="228.49" cy="272.6" r="47.81" fx="228.49" fy="272.6">
   <stop offset="0" style="stop-opacity:1; stop-color:#B8B8B8"/>
   <stop offset="1" style="stop-opacity:1; stop-color:#7F8080"/>
  </radialGradient>
 </defs>
 <g id="Layer_x0020_1">
  <metadata id="CorelCorpID_0Corel-Layer"/>
  <g id="_2468046538576">
   <g>
    <path class="fil0" d="M131.32 347.52c0,-12.96 -3.7,-19.43 -11.11,-19.67 -3.01,-0.23 -5.78,0.46 -8.56,1.39 -2.32,0.69 -3.7,1.62 -4.4,2.32l0 30.54c4.63,3.01 8.79,4.4 12.5,4.16 7.64,-0.7 11.57,-6.95 11.57,-18.74zm9.03 0.46c0,6.48 -1.39,11.8 -4.63,16.2 -3.47,4.87 -8.1,7.41 -14.34,7.41 -4.63,0.22 -9.25,-1.39 -14.12,-4.4l0 27.77 -7.87 -2.78 0 -61.78c1.39,-1.62 3.01,-3.01 4.87,-4.16 4.63,-2.77 10.42,-4.16 16.89,-4.16 6.02,0 10.87,2.55 14.12,7.41 3.46,5.31 5.09,11.09 5.09,18.5l0 0zm47.89 18.28c0,8.79 -0.93,14.81 -2.55,18.05 -1.86,3.23 -5.09,6.02 -9.96,8.1 -4.16,1.62 -8.32,2.54 -12.96,2.54l-1.39 -4.87c4.86,-0.69 8.1,-1.39 9.95,-1.86 3.7,-1.39 6.48,-3.23 7.86,-6.02 1.15,-2.08 1.62,-6.24 1.62,-12.26l0 -2.08c-5.32,2.54 -11.11,3.7 -16.89,3.7 -3.94,0 -7.41,-1.15 -10.18,-3.7 -3.23,-2.55 -4.87,-6.02 -4.87,-10.18l0 -32.62 7.86 -2.77 0 32.86c0,3.47 1.15,6.24 3.47,8.1 2.32,1.86 5.09,2.77 8.79,2.77 3.7,0 7.41,-1.39 11.57,-4.16l0 -38.43 7.86 0 -0.2 42.81zm30.54 5.09l-2.54 0c-4.4,0 -7.86,-1.15 -10.42,-3.23 -2.54,-2.08 -3.7,-5.09 -3.7,-8.79l0 -31 -5.32 0 0 -4.88 5.32 0 0 -13.19 7.86 -2.77 0 15.96 8.79 0 0 4.87 -8.79 0 0 30.54c0,3.01 0.69,5.09 2.32,6.24 1.39,0.93 3.47,1.62 6.48,1.86l0 4.4zm47.67 -0.7l-7.86 0 0 -30.31c0,-3.01 -0.69,-5.78 -2.08,-7.86 -1.62,-2.55 -3.94,-3.7 -6.95,-3.7 -3.7,0 -8.1,1.86 -13.41,5.78l0 36.33 -7.86 0 0 -72.43 7.86 -2.55 0 32.86c5.09,-3.7 10.42,-5.55 16.42,-5.55 4.16,0 7.41,1.39 10.18,4.16 2.54,2.77 3.94,6.24 3.94,10.42l-0.24 32.85zm41.65 -24.52c0,-4.87 -0.93,-9.03 -2.77,-12.26 -2.32,-3.94 -5.55,-6.02 -10.42,-6.24 -8.56,0.46 -12.96,6.71 -12.96,18.5 0,5.55 0.93,9.96 2.77,13.65 2.32,4.63 5.78,6.95 10.42,6.95 8.56,-0.24 12.96,-6.95 12.96,-20.6zm8.56 0c0,6.95 -1.86,12.96 -5.31,17.59 -3.94,5.09 -9.49,7.86 -16.2,7.86 -6.95,0 -12.26,-2.55 -16.2,-7.86 -3.47,-4.63 -5.32,-10.42 -5.32,-17.59 0,-6.71 1.86,-12.26 5.78,-16.66 4.16,-4.86 9.25,-7.17 15.73,-7.17 6.48,0 11.8,2.32 15.96,7.17 3.7,4.63 5.55,10.18 5.55,16.66zm45.12 24.52l-7.86 0 0 -31.93c0,-3.47 -1.15,-6.24 -3.23,-8.1 -2.08,-1.86 -4.87,-3.01 -8.56,-2.77 -3.7,0 -7.41,1.39 -10.64,3.7l0 39.57 -7.86 0 0 -40.49c4.4,-3.23 8.56,-5.55 12.5,-6.48 3.7,-0.93 6.71,-1.39 9.49,-1.39 1.86,0 3.7,0.23 5.31,0.46 3.01,0.69 5.55,2.08 7.41,3.94 2.08,2.08 3.23,4.87 3.23,7.86l0.21 35.64z"/>
    <path class="fil1" d="M227.11 68.01c-7.41,0 -14.58,0.69 -20.82,1.86 -18.5,3.23 -21.75,9.95 -21.75,22.68l0 16.66 43.5 0 0 5.55 -59.7 0c-12.5,0 -23.59,7.64 -27.07,21.98 -3.94,16.66 -4.16,26.84 0,44.19 3.01,12.96 10.42,21.98 23.14,21.98l15.04 0 0 -19.89c0,-14.34 12.5,-27.07 27.07,-27.07l43.26 0c12.04,0 21.75,-9.96 21.75,-22.22l0 -41.42c0,-11.8 -9.95,-20.6 -21.75,-22.68 -7.65,-1.15 -15.28,-1.84 -22.68,-1.62zm-23.61 13.19c4.4,0 8.1,3.7 8.1,8.32 0,4.63 -3.7,8.32 -8.1,8.32 -4.4,0 -8.1,-3.7 -8.1,-8.32 0,-4.63 3.47,-8.32 8.1,-8.32z"/>
    <path class="fil2" d="M276.86 114.29l0 19.21c0,15.04 -12.72,27.53 -27.3,27.53l-43.26 0c-11.8,0 -21.75,10.18 -21.75,22.22l0 41.42c0,11.8 10.18,18.74 21.75,22.22 13.65,4.16 26.84,4.87 43.5,0 10.87,-3.23 21.75,-9.49 21.75,-22.22l0 -16.66 -43.52 0 0 -5.55 65.25 0c12.5,0 17.35,-8.79 21.75,-21.98 4.63,-13.65 4.4,-26.6 0,-44.19 -3.01,-12.5 -9.03,-21.98 -21.75,-21.98l-16.42 -0.01zm-24.53 104.82c4.4,0 8.1,3.7 8.1,8.32 0,4.63 -3.7,8.32 -8.1,8.32 -4.4,0 -8.1,-3.7 -8.1,-8.32 0,-4.63 3.71,-8.32 8.1,-8.32z"/>
    <path class="fil0" d="M376.8 316.52l1.39 0 0 -8.56 3.23 0 0 -1.15 -7.86 0 0 1.15 3.23 0 0 8.56zm6.02 0l1.15 0 0 -7.86 2.55 7.86 1.39 0 2.55 -7.86 0 7.86 1.39 0 0 -9.72 -1.62 0 -3.01 8.32 -2.54 -8.32 -1.86 0 0 9.72z"/>
    <path class="fil3" style="mask:url(#id0)" d="M286.8 274.87c0,6.24 -26.14,11.33 -58.31,11.33 -32.17,0 -58.31,-5.09 -58.31,-11.33 0,-6.24 26.14,-11.33 58.31,-11.33 32.17,0 58.31,5.08 58.31,11.33l0 0z"/>
   </g>
   <rect class="fil4" width="463.42" height="463.42"/>
  </g>
 </g>
</svg>
