<?xml version="1.0" encoding="UTF-8"?>
<!DOCTYPE svg PUBLIC "-//W3C//DTD SVG 1.1//EN" "http://www.w3.org/Graphics/SVG/1.1/DTD/svg11.dtd">
<!-- Creator: CorelDRAW 2019 (64-Bit) -->
<svg xmlns="http://www.w3.org/2000/svg" xml:space="preserve" width="1.9685in" height="1.9685in" version="1.1" style="shape-rendering:geometricPrecision; text-rendering:geometricPrecision; image-rendering:optimizeQuality; fill-rule:evenodd; clip-rule:evenodd"
viewBox="0 0 1824.51 1824.51"
 xmlns:xlink="http://www.w3.org/1999/xlink"
 xmlns:xodm="http://www.corel.com/coreldraw/odm/2003">
 <defs>
  <style type="text/css">
   <![CDATA[
    .fil4 {fill:none}
    .fil0 {fill:#3B3939;fill-rule:nonzero}
    .fil1 {fill:#3E9AE0;fill-rule:nonzero}
    .fil2 {fill:#FFE63E;fill-rule:nonzero}
    .fil3 {fill:url(#id2);fill-rule:nonzero}
   ]]>
  </style>
     <mask id="id0">
  <radialGradient id="id1" gradientUnits="userSpaceOnUse" cx="670" cy="1037.55" r="0" fx="670" fy="1037.55">
   <stop offset="0" style="stop-opacity:0.498039; stop-color:white"/>
   <stop offset="1" style="stop-opacity:0; stop-color:white"/>
  </radialGradient>
      <rect style="fill:url(#id1)" x="670" y="1037.55" width="459.13" height="89.24"/>
     </mask>
  <radialGradient id="id2" gradientUnits="userSpaceOnUse" gradientTransform="matrix(1.42165E-17 -0.232174 -1.02078 -6.25046E-17 1995 1282)" cx="899.57" cy="1073.24" r="188.24" fx="899.57" fy="1073.24">
   <stop offset="0" style="stop-opacity:1; stop-color:#B8B8B8"/>
   <stop offset="1" style="stop-opacity:1; stop-color:#7F8080"/>
  </radialGradient>
 </defs>
 <g id="Layer_x0020_1">
  <metadata id="CorelCorpID_0Corel-Layer"/>
  <g id="_2468261443808">
   <g>
    <path class="fil0" d="M517 1368.19c0,-51.04 -14.56,-76.5 -43.73,-77.44 -11.84,-0.89 -22.75,1.82 -33.71,5.48 -9.13,2.71 -14.56,6.36 -17.33,9.13l0 120.23c18.21,11.85 34.6,17.33 49.21,16.39 30.06,-2.77 45.56,-27.35 45.56,-73.79zm35.54 1.83c0,25.52 -5.48,46.44 -18.21,63.77 -13.67,19.15 -31.89,29.17 -56.46,29.17 -18.21,0.88 -36.42,-5.48 -55.58,-17.33l0 109.33 -31 -10.96 0 -243.24c5.48,-6.37 11.84,-11.85 19.15,-16.39 18.21,-10.9 41.02,-16.38 66.48,-16.38 23.69,0 42.79,10.02 55.58,29.17 13.62,20.92 20.04,43.68 20.04,72.85l0 0zm188.54 71.96c0,34.6 -3.66,58.29 -10.02,71.08 -7.31,12.73 -20.04,23.69 -39.19,31.89 -16.38,6.36 -32.77,10.02 -51.04,10.02l-5.48 -19.15c19.15,-2.71 31.89,-5.48 39.19,-7.31 14.56,-5.48 25.52,-12.73 30.94,-23.69 4.54,-8.19 6.37,-24.58 6.37,-48.27l0 -8.19c-20.93,10.02 -43.73,14.56 -66.49,14.56 -15.5,0 -29.17,-4.54 -40.08,-14.56 -12.73,-10.02 -19.15,-23.69 -19.15,-40.08l0 -128.43 30.94 -10.9 0 129.37c0,13.67 4.54,24.58 13.67,31.89 9.14,7.31 20.04,10.9 34.6,10.9 14.56,0 29.17,-5.48 45.56,-16.38l0 -151.29 30.94 0 -0.77 168.56zm120.23 20.04l-10.02 0c-17.33,0 -30.95,-4.54 -41.02,-12.74 -10.02,-8.19 -14.56,-20.04 -14.56,-34.6l0 -122.06 -20.93 0 0 -19.21 20.93 0 0 -51.93 30.94 -10.91 0 62.83 34.6 0 0 19.15 -34.6 0 0 120.23c0,11.85 2.71,20.04 9.13,24.58 5.48,3.65 13.67,6.36 25.52,7.31l0 17.33zm187.66 -2.77l-30.94 0 0 -119.35c0,-11.84 -2.71,-22.75 -8.19,-30.94 -6.37,-10.02 -15.5,-14.56 -27.35,-14.56 -14.56,0 -31.89,7.31 -52.81,22.75l0 143.04 -30.95 0 0 -285.14 30.95 -10.02 0 129.37c20.04,-14.56 41.02,-21.86 64.65,-21.86 16.39,0 29.17,5.48 40.08,16.38 10.02,10.91 15.5,24.58 15.5,41.02l-0.94 129.31zm163.97 -96.54c0,-19.15 -3.66,-35.54 -10.91,-48.27 -9.13,-15.5 -21.86,-23.69 -41.02,-24.58 -33.71,1.83 -51.04,26.4 -51.04,72.85 0,21.86 3.65,39.19 10.91,53.75 9.13,18.22 22.75,27.35 41.02,27.35 33.71,-0.94 51.04,-27.35 51.04,-81.1zm33.71 0c0,27.35 -7.31,51.04 -20.92,69.25 -15.5,20.04 -37.37,30.94 -63.77,30.94 -27.35,0 -48.27,-10.02 -63.77,-30.94 -13.67,-18.21 -20.93,-41.02 -20.93,-69.25 0,-26.4 7.31,-48.27 22.75,-65.6 16.39,-19.15 36.42,-28.23 61.95,-28.23 25.52,0 46.44,9.13 62.83,28.23 14.56,18.21 21.86,40.08 21.86,65.6zm177.64 96.54l-30.94 0 0 -125.71c0,-13.67 -4.54,-24.58 -12.73,-31.89 -8.19,-7.31 -19.15,-11.84 -33.71,-10.9 -14.56,0 -29.17,5.48 -41.9,14.56l0 155.77 -30.95 0 0 -159.43c17.33,-12.73 33.71,-21.86 49.21,-25.52 14.56,-3.65 26.4,-5.48 37.37,-5.48 7.31,0 14.56,0.89 20.92,1.83 11.85,2.71 21.86,8.19 29.17,15.5 8.19,8.19 12.73,19.15 12.73,30.94l0.83 140.33z"/>
    <path class="fil1" d="M894.14 267.76c-29.17,0 -57.4,2.71 -81.98,7.31 -72.85,12.73 -85.64,39.19 -85.64,89.29l0 65.6 171.27 0 0 21.86 -235.04 0c-49.21,0 -92.89,30.06 -106.56,86.52 -15.5,65.6 -16.38,105.68 0,173.98 11.85,51.04 41.02,86.52 91.12,86.52l59.23 0 0 -78.33c0,-56.46 49.21,-106.56 106.56,-106.56l170.33 0c47.38,0 85.64,-39.19 85.64,-87.46l0 -163.08c0,-46.44 -39.19,-81.1 -85.64,-89.29 -30.12,-4.54 -60.17,-7.25 -89.29,-6.37zm-92.94 51.93c17.33,0 31.89,14.56 31.89,32.77 0,18.21 -14.56,32.77 -31.89,32.77 -17.33,0 -31.89,-14.56 -31.89,-32.77 0,-18.21 13.67,-32.77 31.89,-32.77z"/>
    <path class="fil2" d="M1089.99 449.95l0 75.61c0,59.23 -50.1,108.39 -107.5,108.39l-170.33 0c-46.44,0 -85.64,40.08 -85.64,87.46l0 163.08c0,46.44 40.08,73.79 85.64,87.46 53.75,16.38 105.68,19.15 171.27,0 42.79,-12.74 85.64,-37.37 85.64,-87.46l0 -65.6 -171.33 0 0 -21.86 256.91 0c49.21,0 68.31,-34.6 85.64,-86.52 18.21,-53.75 17.33,-104.73 0,-173.98 -11.85,-49.21 -35.54,-86.52 -85.64,-86.52l-64.66 -0.05zm-96.59 412.68c17.33,0 31.89,14.56 31.89,32.77 0,18.21 -14.56,32.77 -31.89,32.77 -17.33,0 -31.89,-14.56 -31.89,-32.77 0,-18.21 14.61,-32.77 31.89,-32.77z"/>
    <path class="fil0" d="M1483.46 1246.13l5.48 0 0 -33.71 12.73 0 0 -4.54 -30.94 0 0 4.54 12.73 0 0 33.71zm23.69 0l4.54 0 0 -30.94 10.02 30.94 5.48 0 10.02 -30.94 0 30.94 5.48 0 0 -38.25 -6.37 0 -11.85 32.77 -10.02 -32.77 -7.31 0 0 38.25z"/>
    <path class="fil3" style="mask:url(#id0)" d="M1129.13 1082.17c0,24.58 -102.91,44.62 -229.56,44.62 -126.66,0 -229.56,-20.04 -229.56,-44.62 0,-24.58 102.91,-44.62 229.56,-44.62 126.65,0 229.56,19.99 229.56,44.62l0 0z"/>
   </g>
   <rect class="fil4" x="0" y="-0" width="1824.51" height="1824.51"/>
  </g>
 </g>
</svg>
