<?xml version="1.0" encoding="UTF-8"?>
<!DOCTYPE svg PUBLIC "-//W3C//DTD SVG 1.1//EN" "http://www.w3.org/Graphics/SVG/1.1/DTD/svg11.dtd">
<!-- Creator: CorelDRAW 2019 (64-Bit) -->
<svg xmlns="http://www.w3.org/2000/svg" xml:space="preserve" width="5mm" height="5mm" version="1.1" style="shape-rendering:geometricPrecision; text-rendering:geometricPrecision; image-rendering:optimizeQuality; fill-rule:evenodd; clip-rule:evenodd"
viewBox="0 0 137.75 137.75"
 xmlns:xlink="http://www.w3.org/1999/xlink"
 xmlns:xodm="http://www.corel.com/coreldraw/odm/2003">
 <defs>
  <style type="text/css">
   <![CDATA[
    .fil0 {fill:none}
    .fil2 {fill:#425066;fill-rule:nonzero}
    .fil1 {fill:url(#id0);fill-rule:nonzero}
   ]]>
  </style>
  <linearGradient id="id0" gradientUnits="userSpaceOnUse" x1="45.18" y1="58.99" x2="93.09" y2="58.99">
   <stop offset="0" style="stop-opacity:1; stop-color:#FF6F00"/>
   <stop offset="1" style="stop-opacity:1; stop-color:#FFA800"/>
  </linearGradient>
 </defs>
 <g id="Layer_x0020_1">
  <metadata id="CorelCorpID_0Corel-Layer"/>
  <rect class="fil0" width="137.75" height="137.75"/>
  <g id="_2468332685264">
   <path class="fil1" d="M93.36 44.98l-23.44 -13.34 0 54.81 9.38 -5.42 0 -15.42 7.09 4.06 -0.1 -10.52 -6.98 -4.06 0 -6.15 14.07 8.23 0 -12.19zm-48.97 0l23.45 -13.34 0 54.81 -9.38 -5.42 0 -32.09 -14.07 8.23 0 -12.19z"/>
   <path class="fil2" d="M35.93 95.26l-3.85 0 0 10.65 -2.15 0 0 -10.65 -3.85 0 0 -1.73 9.85 0 0 1.73zm2.58 10.81c-1.31,0 -2.38,-0.42 -3.19,-1.23 -0.81,-0.81 -1.23,-1.92 -1.23,-3.31l0 -0.27c0,-0.85 0.15,-1.69 0.54,-2.46 0.35,-0.69 0.85,-1.27 1.5,-1.69 0.65,-0.42 1.38,-0.62 2.15,-0.62 1.27,0 2.23,0.38 2.92,1.19 0.69,0.81 1.04,1.92 1.04,3.38l0 0.85 -6.04 0c0.04,0.69 0.31,1.31 0.77,1.81 0.46,0.46 1.04,0.69 1.69,0.65 0.92,0.04 1.77,-0.42 2.31,-1.15l1.12 1.08c-0.38,0.54 -0.88,1 -1.46,1.27 -0.69,0.38 -1.38,0.54 -2.12,0.5l0 0zm-0.23 -7.88c-0.54,-0.04 -1.04,0.19 -1.38,0.58 -0.38,0.46 -0.62,1.04 -0.65,1.65l3.96 0 0 -0.15c-0.04,-0.69 -0.23,-1.23 -0.54,-1.58 -0.38,-0.31 -0.88,-0.54 -1.38,-0.5l0 0zm7.46 -1.5l0.08 1.08c0.65,-0.81 1.65,-1.27 2.69,-1.23 1.92,0 2.88,1.12 2.92,3.31l0 6.08 -2.08 0 0 -5.96c0,-0.58 -0.12,-1 -0.38,-1.31 -0.27,-0.27 -0.65,-0.42 -1.23,-0.42 -0.81,-0.04 -1.54,0.42 -1.88,1.12l0 6.54 -2.08 0 0 -9.23 1.96 0.04 0 0zm12.38 6.73c0,-0.35 -0.15,-0.65 -0.46,-0.85 -0.46,-0.27 -1,-0.42 -1.5,-0.5 -0.62,-0.12 -1.19,-0.31 -1.77,-0.58 -1.04,-0.5 -1.54,-1.23 -1.54,-2.15 0,-0.77 0.38,-1.54 1,-2 0.65,-0.54 1.54,-0.81 2.54,-0.81 1.12,0 2,0.27 2.65,0.81 0.65,0.5 1.04,1.31 1,2.12l-2.08 0c0,-0.38 -0.15,-0.73 -0.46,-1 -0.35,-0.27 -0.73,-0.42 -1.19,-0.38 -0.38,0 -0.77,0.08 -1.12,0.31 -0.27,0.19 -0.42,0.5 -0.42,0.85 0,0.31 0.15,0.58 0.38,0.73 0.27,0.19 0.81,0.35 1.62,0.54 0.65,0.12 1.31,0.35 1.92,0.65 0.42,0.19 0.77,0.5 1.04,0.88 0.23,0.38 0.35,0.81 0.35,1.27 0,0.81 -0.38,1.54 -1.04,2 -0.69,0.5 -1.58,0.77 -2.69,0.77 -0.69,0 -1.38,-0.12 -2,-0.42 -0.54,-0.23 -1.04,-0.62 -1.38,-1.12 -0.31,-0.46 -0.5,-1 -0.5,-1.54l2 0c0,0.42 0.19,0.85 0.54,1.12 0.38,0.27 0.88,0.42 1.35,0.38 0.54,0 0.96,-0.12 1.23,-0.31 0.38,-0.15 0.54,-0.46 0.54,-0.77l-0 0zm3.12 -2.19c0,-0.85 0.15,-1.69 0.54,-2.42 0.35,-0.69 0.85,-1.27 1.5,-1.65 0.69,-0.38 1.46,-0.62 2.23,-0.58 1.23,0 2.27,0.38 3.04,1.19 0.77,0.81 1.19,1.85 1.27,3.19l0 0.5c0,0.85 -0.15,1.65 -0.54,2.42 -0.31,0.69 -0.85,1.27 -1.5,1.65 -0.69,0.38 -1.46,0.62 -2.27,0.58 -1.31,0 -2.35,-0.42 -3.12,-1.31 -0.77,-0.85 -1.15,-2 -1.19,-3.46l0.04 -0.12zm2.04 0.19c0,0.96 0.19,1.69 0.58,2.23 0.69,0.88 1.96,1.08 2.88,0.38 0.15,-0.12 0.27,-0.23 0.38,-0.38 0.38,-0.54 0.58,-1.35 0.58,-2.38 0,-0.92 -0.19,-1.65 -0.62,-2.23 -0.65,-0.88 -1.92,-1.08 -2.85,-0.42 -0.15,0.12 -0.31,0.27 -0.42,0.38 -0.31,0.54 -0.54,1.35 -0.54,2.42l0 0zm12.73 -2.81c-0.27,-0.04 -0.58,-0.08 -0.85,-0.08 -0.96,0 -1.58,0.35 -1.92,1.08l0 6.31 -2.08 0 0 -9.23 1.96 0 0.04 1.04c0.5,-0.81 1.19,-1.19 2.08,-1.19 0.23,0 0.5,0.04 0.73,0.12l0.04 1.96 0 -0zm8.65 2.04l-5 0 0 5.27 -2.15 0 0 -12.38 7.88 0 0 1.73 -5.73 0 0 3.69 5 0 0 1.69 0 0zm4.12 5.27l-2.08 0 0 -12.42 2.08 0 0 12.42zm1.5 -4.69c0,-0.85 0.15,-1.69 0.54,-2.42 0.35,-0.69 0.85,-1.27 1.5,-1.65 0.69,-0.38 1.46,-0.62 2.23,-0.58 1.23,0 2.27,0.38 3.04,1.19 0.77,0.81 1.19,1.85 1.27,3.19l0 0.5c0,0.85 -0.15,1.65 -0.5,2.42 -0.31,0.69 -0.85,1.27 -1.5,1.65 -0.69,0.38 -1.46,0.62 -2.27,0.58 -1.31,0 -2.35,-0.42 -3.12,-1.31 -0.77,-0.85 -1.19,-2 -1.19,-3.46l0 -0.12zm2.08 0.19c0,0.96 0.19,1.69 0.58,2.23 0.38,0.54 1,0.85 1.65,0.81 0.65,0.04 1.27,-0.27 1.62,-0.81 0.38,-0.54 0.58,-1.35 0.58,-2.38 0,-0.92 -0.19,-1.65 -0.62,-2.23 -0.65,-0.88 -1.92,-1.08 -2.85,-0.42 -0.15,0.12 -0.31,0.27 -0.42,0.38 -0.35,0.54 -0.54,1.35 -0.54,2.42l0 0zm15.85 1.65l1.46 -6.35 2 0 -2.5 9.23 -1.69 0 -1.96 -6.35 -1.96 6.35 -1.69 0 -2.54 -9.23 2.04 0 1.5 6.31 1.88 -6.31 1.58 0 1.88 6.35 0 0z"/>
  </g>
 </g>
</svg>
