<?xml version="1.0" encoding="UTF-8"?>
<!DOCTYPE svg PUBLIC "-//W3C//DTD SVG 1.1//EN" "http://www.w3.org/Graphics/SVG/1.1/DTD/svg11.dtd">
<!-- Creator: CorelDRAW 2019 (64-Bit) -->
<svg xmlns="http://www.w3.org/2000/svg" xml:space="preserve" width="1.9685in" height="1.9685in" version="1.1" style="shape-rendering:geometricPrecision; text-rendering:geometricPrecision; image-rendering:optimizeQuality; fill-rule:evenodd; clip-rule:evenodd"
viewBox="0 0 542.31 542.31"
 xmlns:xlink="http://www.w3.org/1999/xlink"
 xmlns:xodm="http://www.corel.com/coreldraw/odm/2003">
 <defs>
  <style type="text/css">
   <![CDATA[
    .fil0 {fill:none}
    .fil2 {fill:#425066;fill-rule:nonzero}
    .fil1 {fill:url(#id0);fill-rule:nonzero}
   ]]>
  </style>
  <linearGradient id="id0" gradientUnits="userSpaceOnUse" x1="177.89" y1="232.25" x2="366.51" y2="232.25">
   <stop offset="0" style="stop-opacity:1; stop-color:#FF6F00"/>
   <stop offset="1" style="stop-opacity:1; stop-color:#FFA800"/>
  </linearGradient>
 </defs>
 <g id="Layer_x0020_1">
  <metadata id="CorelCorpID_0Corel-Layer"/>
  <rect class="fil0" width="542.31" height="542.31"/>
  <g id="_2468068060608">
   <path class="fil1" d="M367.56 177.08l-92.3 -52.51 0 215.78 36.92 -21.33 0 -60.72 27.9 16 -0.41 -41.43 -27.49 -16 0 -24.2 55.38 32.41 0 -48zm-192.81 0l92.3 -52.51 0 215.78 -36.92 -21.33 0 -126.35 -55.38 32.41 0 -48z"/>
   <path class="fil2" d="M141.46 375.03l-15.14 0 0 41.94 -8.48 0 0 -41.94 -15.14 0 0 -6.81 38.76 0 0 6.81zm10.15 42.55c-5.15,0 -9.39,-1.66 -12.57,-4.84 -3.18,-3.18 -4.84,-7.57 -4.84,-13.02l0 -1.06c0,-3.33 0.61,-6.66 2.12,-9.69 1.36,-2.73 3.33,-5 5.91,-6.66 2.57,-1.67 5.45,-2.42 8.48,-2.42 5,0 8.78,1.51 11.51,4.69 2.73,3.18 4.09,7.57 4.09,13.33l0 3.33 -23.77 0c0.15,2.73 1.21,5.15 3.03,7.12 1.82,1.82 4.09,2.73 6.66,2.57 3.63,0.15 6.97,-1.67 9.09,-4.54l4.39 4.24c-1.51,2.12 -3.48,3.94 -5.75,5 -2.73,1.51 -5.45,2.12 -8.33,1.97l0 0zm-0.91 -31.04c-2.12,-0.15 -4.09,0.76 -5.45,2.27 -1.51,1.82 -2.42,4.09 -2.57,6.51l15.6 0 0 -0.61c-0.15,-2.72 -0.91,-4.84 -2.12,-6.21 -1.51,-1.21 -3.48,-2.12 -5.45,-1.97l0 0zm29.38 -5.91l0.3 4.24c2.57,-3.18 6.51,-5 10.6,-4.84 7.57,0 11.36,4.39 11.51,13.02l0 23.92 -8.18 0 0 -23.47c0,-2.27 -0.45,-3.94 -1.51,-5.15 -1.06,-1.06 -2.57,-1.66 -4.85,-1.66 -3.18,-0.15 -6.06,1.66 -7.42,4.39l0 25.74 -8.18 0 0 -36.34 7.72 0.15 0 0zm48.76 26.5c0,-1.36 -0.61,-2.57 -1.82,-3.33 -1.82,-1.06 -3.94,-1.67 -5.91,-1.97 -2.42,-0.45 -4.69,-1.21 -6.97,-2.27 -4.09,-1.97 -6.06,-4.85 -6.06,-8.48 0,-3.03 1.51,-6.06 3.94,-7.87 2.57,-2.12 6.06,-3.18 9.99,-3.18 4.39,0 7.87,1.06 10.45,3.18 2.57,1.97 4.09,5.15 3.94,8.33l-8.18 0c0,-1.51 -0.61,-2.88 -1.82,-3.94 -1.36,-1.06 -2.88,-1.67 -4.69,-1.51 -1.51,0 -3.03,0.3 -4.39,1.21 -1.06,0.76 -1.67,1.97 -1.67,3.33 0,1.21 0.61,2.27 1.51,2.88 1.06,0.76 3.18,1.36 6.36,2.12 2.57,0.45 5.15,1.36 7.57,2.57 1.67,0.76 3.03,1.97 4.09,3.48 0.91,1.51 1.36,3.18 1.36,5 0,3.18 -1.51,6.06 -4.09,7.87 -2.73,1.97 -6.21,3.03 -10.6,3.03 -2.73,0 -5.45,-0.45 -7.87,-1.67 -2.12,-0.91 -4.09,-2.42 -5.45,-4.39 -1.21,-1.82 -1.97,-3.94 -1.97,-6.06l7.87 0c0,1.66 0.76,3.33 2.12,4.39 1.51,1.06 3.48,1.67 5.3,1.51 2.12,0 3.79,-0.45 4.85,-1.21 1.51,-0.61 2.12,-1.82 2.12,-3.03l-0 0zm12.27 -8.63c0,-3.33 0.61,-6.66 2.12,-9.54 1.36,-2.73 3.33,-5 5.91,-6.51 2.73,-1.52 5.75,-2.42 8.78,-2.27 4.85,0 8.93,1.51 11.96,4.69 3.03,3.18 4.69,7.27 5,12.57l0 1.97c0,3.33 -0.61,6.51 -2.12,9.54 -1.21,2.73 -3.33,5 -5.91,6.51 -2.73,1.51 -5.75,2.42 -8.93,2.27 -5.15,0 -9.24,-1.67 -12.26,-5.15 -3.03,-3.33 -4.54,-7.87 -4.69,-13.63l0.15 -0.45zm8.03 0.76c0,3.79 0.76,6.66 2.27,8.78 2.73,3.48 7.72,4.24 11.36,1.51 0.61,-0.45 1.06,-0.91 1.51,-1.51 1.52,-2.12 2.27,-5.3 2.27,-9.39 0,-3.63 -0.76,-6.51 -2.42,-8.78 -2.57,-3.48 -7.57,-4.24 -11.21,-1.66 -0.61,0.45 -1.21,1.06 -1.67,1.51 -1.21,2.12 -2.12,5.3 -2.12,9.54l0 0zm50.12 -11.05c-1.06,-0.15 -2.27,-0.3 -3.33,-0.3 -3.79,0 -6.21,1.36 -7.57,4.24l0 24.83 -8.18 0 0 -36.34 7.72 0 0.15 4.09c1.97,-3.18 4.69,-4.69 8.18,-4.69 0.91,0 1.97,0.15 2.88,0.45l0.15 7.72 0 -0zm34.07 8.03l-19.69 0 0 20.74 -8.48 0 0 -48.76 31.04 0 0 6.81 -22.56 0 0 14.54 19.69 0 0 6.66 0 0zm16.2 20.74l-8.18 0 0 -48.91 8.18 0 0 48.91zm5.91 -18.47c0,-3.33 0.61,-6.66 2.12,-9.54 1.36,-2.73 3.33,-5 5.9,-6.51 2.73,-1.52 5.75,-2.42 8.78,-2.27 4.84,0 8.93,1.51 11.96,4.69 3.03,3.18 4.69,7.27 5,12.57l0 1.97c0,3.33 -0.61,6.51 -1.97,9.54 -1.21,2.73 -3.33,5 -5.91,6.51 -2.73,1.51 -5.75,2.42 -8.93,2.27 -5.15,0 -9.24,-1.67 -12.26,-5.15 -3.03,-3.33 -4.69,-7.87 -4.69,-13.63l0 -0.45zm8.18 0.76c0,3.79 0.76,6.66 2.27,8.78 1.51,2.12 3.94,3.33 6.51,3.18 2.57,0.15 5,-1.06 6.36,-3.18 1.51,-2.12 2.27,-5.3 2.27,-9.39 0,-3.63 -0.76,-6.51 -2.42,-8.78 -2.57,-3.48 -7.57,-4.24 -11.21,-1.66 -0.61,0.45 -1.21,1.06 -1.67,1.51 -1.36,2.12 -2.12,5.3 -2.12,9.54l0 0zm62.38 6.51l5.75 -24.98 7.87 0 -9.84 36.34 -6.66 0 -7.72 -24.98 -7.72 24.98 -6.66 0 -9.99 -36.34 8.03 0 5.91 24.83 7.42 -24.83 6.21 0 7.42 24.98 0 0z"/>
  </g>
 </g>
</svg>
